<svg version="1.2" xmlns="http://www.w3.org/2000/svg" viewBox="0 0 1024 1024" width="1024" height="1024">
	<style>
		.s0 { fill: #feae68 } 
		.s1 { fill: #feddc0 } 
		.s2 { fill: #fe8f00 } 
		.s3 { fill: #ff7b00 } 
		.s4 { fill: #0f1a2b } 
		.s5 { fill: #182a42 } 
		.s6 { fill: #feb476 } 
		.s7 { fill: #feead4 } 
		.s8 { fill: #fcf7f8 } 
		.s9 { fill: #fee3c9 } 
		.s10 { fill: #fed5b3 } 
		.s11 { opacity: 1;fill: #fecca2 } 
		.s12 { fill: #243551 } 
		.s13 { fill: #fec393 } 
		.s14 { fill: #feba82 } 
		.s15 { fill: #fe9e00 } 
		.s16 { fill: #ff6300 } 
		.s17 { fill: #fd4900 } 
		.s18 { fill: #122135 } 
		.s19 { fill: #0b111e } 
	</style>
	<g id="Background">
		<path id="Path 0" class="s0" d="m569.43-1505.5c0 13.2 0.14 18.38 0.32 11.5 0.17-6.88 0.17-17.67 0-24-0.18-6.33-0.32-0.7-0.32 12.5zm-67.03 115.5c0 7.97 0.15 11.35 0.34 7.5 0.19-3.85 0.19-10.38 0-14.5-0.19-4.13-0.34-0.97-0.34 7zm2.99 53c0 7.42 0.16 10.35 0.35 6.5 0.19-3.85 0.19-9.92 0-13.5-0.19-3.58-0.35-0.42-0.35 7zm208.01 112.5c0.01 8.8 0.16 12.17 0.34 7.5 0.19-4.67 0.19-11.88 0-16-0.18-4.13-0.34-0.3-0.34 8.5zm-228.4 71.25c34.93 0.15 91.63 0.15 126 0 34.38-0.15 5.8-0.27-63.5-0.27-69.3 0-97.42 0.12-62.5 0.27zm-157.5 350c7.15 0.17 18.4 0.17 25 0 6.6-0.18 0.75-0.32-13-0.32-13.75 0-19.15 0.15-12 0.32zm421 0c4.95 0.18 12.6 0.18 17-0.01 4.4-0.18 0.35-0.33-9-0.33-9.35 0-12.95 0.15-8 0.34zm-664.74 53.75c0.56 1.1 3.42 5.22 6.37 9.16 2.96 3.94 8.75 11.1 12.87 15.91 4.13 4.8 12.68 13.21 19 18.67 6.33 5.46 17.58 13.98 25 18.93 7.43 4.95 19.8 12.08 27.5 15.85 7.7 3.77 20.08 8.87 27.5 11.33 7.43 2.46 18.68 5.63 25 7.04 6.33 1.42 16 3.23 21.5 4.04 5.5 0.81 14.95 2.03 21 2.71 8.34 0.94 71.87 1.33 263 1.62 174 0.26 258.81 0.04 274-0.72 12.1-0.6 28.53-1.94 36.5-2.97 7.98-1.04 19.9-3.09 26.5-4.57 6.6-1.47 16.95-4.27 23-6.22 6.05-1.95 15.61-5.5 21.25-7.91 5.64-2.4 15.31-7.19 21.5-10.63 6.19-3.44 15.53-9.25 20.75-12.9 5.22-3.65 13.78-10.21 19-14.58 5.22-4.36 10.8-9.47 12.39-11.35 1.58-1.87 5.8-6.56 9.36-10.41 3.56-3.85 6.9-7.9 7.42-9l0.94-2c-2.5 3.1-6.46 7.55-10.42 11.89-5.24 5.75-10.45 10.01-19.19 15.7-6.6 4.3-12.56 8.28-13.25 8.86-0.69 0.58-1.7 1.05-2.25 1.05-0.55 0-4.26 1.41-8.25 3.13-3.99 1.72-9.39 3.74-12 4.5-2.61 0.75-5.09 1.45-5.5 1.54-0.41 0.1-2.78 0.78-5.25 1.52-2.47 0.73-7.42 1.34-11 1.35-3.57 0-8.41 0.45-10.75 0.98-2.34 0.54-9.09 1.66-15 2.5-5.91 0.84-19.07 2.05-29.25 2.68-14.69 0.92-21.89 0.89-35-0.15-10.9-0.87-41.09-1.43-89-1.65-39.87-0.19-78.57-0.79-86-1.34-7.42-0.55-24.97-1.23-39-1.51-14.02-0.28-64.2-0.77-111.5-1.1-74.26-0.51-88.12-0.37-101.5 1-8.52 0.87-21.57 2.09-29 2.7-9.9 0.83-28.31 0.84-69 0.06-47.26-0.92-57.36-1.37-68-3.09-6.87-1.1-17.9-3.15-24.5-4.54-6.6-1.39-18.3-4.31-26-6.48-7.7-2.17-17.15-5.11-21-6.54-3.85-1.43-8.12-2.6-9.5-2.59-1.37 0.01-4.52-0.75-7-1.7-2.47-0.94-8.1-3.68-12.5-6.09-4.4-2.41-13.85-8.23-21-12.92-7.15-4.7-15.02-10.14-17.5-12.09-2.47-1.96-6.47-5.38-8.87-7.61-2.44-2.27-3.93-3.18-3.37-2.06z"/>
		<path id="Path 1" class="s1" d="m-23.9-351.56c-0.05 1.96-0.55 3.56-1.1 3.56-0.55 0-1.01 1.46-1.01 3.25-0.01 1.79-0.35 4.27-0.75 5.51-0.48 1.46-1.8 2.46-3.74 2.82-1.65 0.31-3.79 0.76-4.75 0.99-1.5 0.37-1.77-0.39-1.9-5.32-0.08-3.16-0.72 5.95-1.41 20.25-0.69 14.3-1.24 42.88-1.21 63.5 0.04 28.72 0.25 35.04 0.91 27 0.47-5.77 1.03-10.95 1.23-11.5 0.2-0.55 0.65 1.14 1 3.75 0.62 4.64 0.71 4.75 4.13 4.75 1.92 0 4.06 0.24 4.75 0.53 0.79 0.33 1.5-0.67 1.92-2.75 0.37-1.8 1.07-4.85 1.56-6.78l0.89-3.5 2.88 9c9.3 0.32 19.42 1.42 28.5 2.64 15.72 2.13 17.42 2.17 36 0.94 15.02-0.99 21.8-1.03 29.5-0.15 5.5 0.63 15.62 2.02 22.5 3.09 6.87 1.08 15.87 2.07 20 2.22 4.12 0.14 16.5-0.31 27.5-1 11-0.69 26.07-1.76 33.5-2.38 7.43-0.61 29.03-1.26 48-1.44 18.98-0.17 36.52-0.31 39-0.3 2.48 0 6.03 0.77 7.89 1.69 1.86 0.93 4.85 3.71 6.62 6.19 1.78 2.48 4.64 6.98 6.34 10 1.71 3.02 3.13 6.63 3.15 8 0.02 1.57 0.3 2.02 0.77 1.22 0.5-0.88 1.71 0.24 3.81 3.5 1.7 2.63 3.43 5.91 3.86 7.28 0.43 1.38 1.8 3.63 3.04 5 1.24 1.38 2.75 3.4 3.36 4.5 0.84 1.54 1.11-1.3 1.13-12.25 0.02-7.84 0.71-19.54 1.55-26 0.83-6.46 2.69-16.48 4.12-22.25 1.43-5.77 4.16-14.55 6.05-19.5 1.9-4.95 5.66-13.27 8.36-18.5 2.69-5.23 7.45-13.32 10.57-18 3.12-4.68 4.91-7.82 3.98-7-0.93 0.82-1.66 1.05-1.63 0.5 0.03-0.55 0.46-1.68 0.95-2.5 0.59-0.99 0.1-3.54-1.43-7.5-1.28-3.3-3.43-8.48-4.76-11.5-1.34-3.02-3.85-6.74-5.58-8.25-1.73-1.51-4.39-3.04-5.9-3.39-1.51-0.36-5.23-0.4-8.25-0.11-3.02 0.3-8.88 1.76-13 3.25-4.13 1.49-10.65 3.86-14.5 5.25-5.83 2.12-9.25 2.62-20.5 2.98-10.37 0.33-16.69-0.05-27.25-1.65-7.56-1.14-17.35-2.08-21.75-2.08-4.4 0-12.39 0.66-17.75 1.47-5.68 0.85-18.94 1.58-31.75 1.74-12.1 0.14-35.28-0.28-51.5-0.94-16.22-0.66-36.47-2.07-45-3.14-8.53-1.07-18.88-2.22-23-2.57-4.13-0.34-9.97-1.11-13-1.71-3.03-0.6-10.9-3.76-17.5-7.03-9.06-4.49-13.47-6.09-18-6.56-5.32-0.54-6.66-0.28-11.82 2.32-4.98 2.5-5.94 2.7-6.73 1.42-0.51-0.82-0.88-2.26-0.83-3.19 0.04-0.93-0.37-1.97-0.92-2.31-0.59-0.36-1.04 0.84-1.1 2.94zm651.65 10.67c-2.61 0.49-7.56 2.15-11 3.69-3.44 1.53-7.82 4-9.75 5.47-1.92 1.47-4.34 2.69-5.36 2.7-1.02 0.02-2.37 0.73-3 1.57-0.63 0.85-1.7 1.53-2.39 1.5-0.69-0.02-1.2 0.3-1.13 0.71 0.06 0.41 0.08 1.43 0.04 2.25-0.06 1.33-0.26 1.33-1.76 0-0.93-0.82 0.24 1.65 2.61 5.5 2.36 3.85 7.83 14.2 12.15 23 4.32 8.8 9.91 21.63 12.44 28.5 2.52 6.88 6.08 18.35 7.9 25.5 1.83 7.15 3.87 17.5 4.54 23 0.67 5.5 1.39 10.11 1.59 10.25 0.2 0.14 3.75-2.79 7.88-6.5 4.13-3.71 7.5-7.43 7.5-8.25-0.01-0.82 1.26-4.2 2.82-7.5 1.56-3.3 4.25-7.24 6-8.75 1.74-1.51 5.08-3.27 7.42-3.9 2.34-0.63 7.63-1.14 11.75-1.15 4.13 0 12.23 0.96 18 2.13 5.78 1.16 17.25 3.24 25.5 4.6 8.25 1.36 19.05 2.98 24 3.59 4.95 0.62 16.2 2.44 25 4.06 8.8 1.61 19.38 3.38 23.5 3.93 4.13 0.55 12 1.67 17.5 2.48 5.5 0.82 16.53 1.95 24.5 2.52 7.98 0.56 18.1 1.74 22.5 2.62 4.4 0.87 14.3 3.58 22 6.01 7.99 2.52 19.37 5.24 26.5 6.32 6.88 1.05 17.68 2.62 24 3.5 6.33 0.88 13.06 2.37 14.96 3.32 2.39 1.19 5.14 4.33 8.94 10.22 3.01 4.68 5.8 8.73 6.19 9 0.38 0.27 1 3.43 1.36 7 0.6 5.86 1.08 6.94 4.86 10.93 2.63 2.78 5.11 6.88 6.65 11 1.6 4.29 2.7 9.87 3.15 16.07 0.37 5.23 0.58-18.18 0.46-52l-0.22-61.5c-4.01-6.98-6.8-10.57-8.78-12.5-3.11-3.01-3.6-4.12-3.57-8 0.02-2.48-0.63-5.4-1.45-6.5-0.82-1.1-1.5-2.79-1.52-3.75-0.02-0.96-1.1-3.21-2.41-5-1.31-1.79-4.27-6.62-6.58-10.75-2.31-4.12-5.17-8.56-6.37-9.85-1.19-1.29-3.86-3.2-5.92-4.25-2.06-1.04-6.11-2-9-2.12-2.89-0.13-10.65 0.4-17.25 1.18-9.97 1.17-13.02 1.19-18 0.11-3.3-0.71-11.4-2.86-18-4.77-6.6-1.92-15.6-4.1-20-4.85-4.4-0.75-14.97-2.08-23.5-2.94-8.52-0.87-24.05-3.16-34.5-5.09-10.45-1.92-20.12-3.76-21.5-4.08-1.37-0.31-7.9-2.11-14.5-3.98-6.6-1.88-15.87-3.9-20.6-4.5-6.86-0.86-13.14-0.73-31 0.68-18.69 1.47-24.14 1.56-32.9 0.59-5.77-0.65-15.45-1.83-21.5-2.62-6.05-0.79-14.37-1.41-18.5-1.37-4.12 0.05-9.64 0.48-12.25 0.97zm-107.77 10.64c-0.01 0.41-0.66 5.25-1.45 10.75-0.79 5.5-2.13 13.26-2.98 17.25-0.85 3.99-1.83 10.96-2.17 15.5-0.34 4.54-0.14 12.07 0.43 16.75 0.57 4.68 1.98 11.09 3.12 14.25 1.55 4.3 2.38 5.5 3.32 4.77 0.87-0.69 2-0.31 3.73 1.25 1.37 1.23 2.72 2.14 3 2.03 0.29-0.11 3.11 1.8 6.27 4.25 3.52 2.72 6.82 4.47 8.5 4.49 1.98 0.03 3.89-1.16 6.79-4.25 2.22-2.36 5.03-6.31 6.24-8.79 1.2-2.48 2.86-7.65 3.69-11.5 0.82-3.85 1.5-9.02 1.51-11.5 0.01-2.48-0.68-8.77-1.51-14-0.84-5.23-2.63-14.23-3.96-20-1.34-5.77-2.56-11.62-2.72-13-0.22-1.93-1.2-2.79-4.29-3.79-2.2-0.71-6.02-1.42-8.5-1.58-2.47-0.16-5.17-0.53-6-0.82-0.82-0.3-3.64-1.05-6.25-1.67-2.61-0.63-5.2-1.14-5.75-1.14-0.55 0-1.01 0.34-1.02 0.75zm-135.68 7.25c-0.08 4.13-1.31 12.56-2.73 18.75-1.91 8.36-2.57 14.01-2.56 22 0 5.91 0.48 13.68 1.06 17.25 0.58 3.57 1.86 8.3 2.85 10.5 0.99 2.2 3.1 5.42 4.69 7.15 1.59 1.74 4.35 3.88 6.14 4.75 1.79 0.88 4.26 1.59 5.5 1.58 1.24-0.01 4.16-0.91 6.5-2 2.61-1.22 5.57-3.81 7.69-6.73 1.89-2.61 4.37-7.56 5.5-11 1.13-3.44 2.75-10.19 3.6-15 0.85-4.81 1.74-16.63 1.99-26.25 0.27-10.8 0.1-16.54-0.45-15-0.61 1.73-0.91 1.96-0.98 0.75-0.06-0.96-2.14-3.89-4.63-6.5-4.22-4.42-4.77-4.7-8-4-2.21 0.48-4.4 0.3-6.04-0.5-2.14-1.04-2.72-1-3.48 0.25-0.51 0.82-0.92 1.05-0.91 0.5 0-0.55-1.92-1.6-4.27-2.33-3.55-1.1-4.65-1.1-6.55 0-1.25 0.73-2.26 1.89-2.25 2.58 0.02 0.69-0.42 1.25-0.97 1.25-0.55 0-1.12-1.24-1.27-2.75-0.15-1.51-0.35 0.63-0.43 4.75z"/>
		<path id="Path 2" class="s2" d="m535.64 205.75c-0.4 2.05-1.65 3.86-3.39 4.91-1.51 0.92-4.55 3.64-6.75 6.06-3.47 3.81-4.93 4.6-11 6-5.33 1.22-8.91 2.92-15 7.13-4.4 3.03-10.02 6.09-12.5 6.79-2.48 0.7-6.3 1.94-8.5 2.77-2.2 0.83-5.24 1.52-6.75 1.55-2.5 0.04-2.85 0.52-3.88 5.29-0.61 2.89-1.4 11.85-1.75 19.91l-0.62 14.66c6.2 1.12 10.02 0.98 12.5 0.4 3.07-0.71 5.13-0.72 6.5-0.02 1.44 0.74 3.53 0.58 7.5-0.56 3.02-0.87 10.23-2.29 16-3.15 5.77-0.87 13.88-1.59 18-1.6 4.13-0.02 8.63 0.26 10 0.62 1.88 0.5 3.35-0.04 5.96-2.18 2.04-1.67 4.9-2.94 7-3.11 1.95-0.15 4.67-1.12 6.04-2.14 1.79-1.33 2.44-2.68 2.28-4.72-0.11-1.57-1.53-7.13-3.14-12.36-1.61-5.22-5.73-17.38-9.16-27-3.43-9.63-6.79-18.63-7.47-20l-1.24-2.5zm56.78 54.71c0.3 2.22 0.79 11.58 1.07 20.79l0.52 16.75c5.81 3.41 9.75 4.6 12.5 4.84 2.75 0.24 6.12 1.29 7.5 2.34 1.37 1.04 3.4 1.88 4.5 1.87 1.1-0.02 3.47-0.37 5.26-0.79 2.2-0.51 3.56-1.58 4.16-3.26 0.79-2.2-0.41-4.34-10.16-18-6.08-8.52-13.4-18.43-16.26-22-3.55-4.44-5.9-6.51-7.42-6.54-2.04-0.03-2.19 0.32-1.67 4zm-184.11 33.9c-3.74 3.51-9.6 9.71-13.02 13.76-5.88 6.98-6.12 7.47-4.5 9.1 1.14 1.14 3.33 1.74 6.47 1.75 2.61 0.02 5.76-0.48 7-1.1 1.23-0.62 3.09-1.86 4.12-2.75 1.02-0.89 2.37-1.67 3-1.73 0.62-0.06 2.93-0.68 5.13-1.37 2.2-0.7 5.01-2.22 6.26-3.39 1.24-1.17 2.5-3.25 2.8-4.63 0.3-1.37-0.36-4.98-1.45-8-1.09-3.02-2.78-6.18-3.74-7-1.1-0.94-1.56-1.04-1.22-0.25 0.3 0.69 0.38 1.25 0.19 1.25-0.19 0-1.22-0.46-2.29-1.02-1.66-0.86-2.99-0.04-8.75 5.38z"/>
		<path id="Path 3" class="s3" d="m554.95 269.07c-1.35 1.03-4.05 2.03-6.01 2.22-1.97 0.19-5.1 1.59-7 3.11-2.57 2.07-4.07 2.6-5.94 2.11-1.38-0.36-5.88-0.64-10-0.62-4.13 0.01-12.23 0.73-18 1.6-5.78 0.86-12.98 2.28-16 3.15-4.06 1.17-6.02 1.3-7.5 0.52-1.41-0.74-3.19-0.74-6 0-2.2 0.58-5.91 0.78-8.25 0.45l-4.25-0.61c0.01 5.81 0.74 14.7 1.63 23.5 1.12 11.13 1.42 20.19 0.99 29.75l-0.62 13.75c11.24-0.89 15.96-1.11 17.75-1.07 1.79 0.04 5.16-0.63 7.5-1.49 2.34-0.86 8.97-2.21 14.75-2.98 5.77-0.78 13.99-1.43 18.25-1.44 7.58-0.02 7.84-0.1 12-3.88 2.34-2.12 6.5-4.58 9.25-5.47 2.75-0.89 6.12-2.76 7.5-4.16 1.37-1.4 2.72-2.1 3-1.57 0.27 0.53 1.35-4.52 2.39-11.23 1.43-9.19 1.76-15.05 1.33-23.71-0.31-6.32-1.1-13.98-1.75-17-0.65-3.02-1.49-5.79-1.87-6.15-0.38-0.35-1.8 0.2-3.15 1.22zm40.32 37.18c0.32 3.99 2.01 13.55 3.76 21.25 1.74 7.7 3.4 16.7 3.68 20 0.28 3.3 0.8 5.42 1.15 4.72 0.45-0.91 1.36-1.02 3.14-0.39 1.37 0.5 4.75 1.24 7.5 1.65 2.75 0.41 5.9 1.33 7 2.05 1.1 0.71 4.92 2.11 8.5 3.1 4.19 1.17 9.96 1.83 16.21 1.84 7.9 0.03 10.05-0.29 11.5-1.71 1.71-1.67 1.38-2.55-7.92-21-5.35-10.59-12.3-23.31-15.45-28.26-5.32-8.34-5.8-8.82-6.52-6.5-0.53 1.73-1.78 2.73-4.04 3.26-1.81 0.42-4.18 0.77-5.28 0.79-1.1 0.01-3.24-0.9-4.75-2.02-1.62-1.2-4.28-2.03-6.5-2.02-2.06 0-5.38-0.9-7.37-2-1.98-1.11-3.97-2.01-4.4-2.01-0.44 0-0.53 3.26-0.21 7.25zm-170.16-1.25c-0.03 0.82-1.08 2.46-2.33 3.63-1.26 1.17-4.08 2.69-6.28 3.39-2.2 0.69-4.51 1.31-5.13 1.37-0.62 0.06-1.97 0.84-3 1.73-1.03 0.89-2.88 2.13-4.12 2.75-1.24 0.62-4.39 1.12-7 1.1-2.86-0.01-5.35-0.62-6.25-1.52-1.33-1.33-1.95-0.92-5.59 3.77-2.25 2.91-6.35 8.88-9.11 13.28-2.76 4.4-7.16 12.27-9.79 17.5-2.63 5.23-6.29 13.66-8.14 18.75-1.86 5.09-3.37 9.48-3.37 9.75 0 0.27 0.56 0.18 1.25-0.22 0.69-0.4 1.92-0.83 2.75-0.96 0.82-0.13 4.65-1.62 8.5-3.31 3.85-1.69 9.25-4.24 12-5.66 2.75-1.42 9.16-4.78 14.25-7.47 5.09-2.68 9.65-5.67 10.15-6.63 0.49-0.96 2.85-2.27 5.25-2.9 2.39-0.63 5.7-2.31 7.35-3.72 1.65-1.42 3.35-2.25 3.78-1.85 0.43 0.39 0.77-1.08 0.76-3.28-0.01-2.2 1.1-8.95 2.47-15 1.37-6.05 2.73-13.02 3.03-15.5 0.3-2.48 0.11-5.85-0.41-7.5-0.53-1.65-0.99-2.32-1.02-1.5z"/>
		<path id="Path 4" class="s4" d="m870.08 575.25c-0.04 2.06-0.7 5.21-1.46 7-0.75 1.79-2.67 4.41-4.25 5.83-1.58 1.42-6.58 4.01-11.12 5.75-4.54 1.74-8.7 3.17-9.25 3.17-0.55 0-3.14 0.65-5.75 1.44-2.61 0.79-9.92 2.84-16.25 4.57-6.33 1.72-15.44 4.45-20.25 6.06-4.81 1.61-13.36 3.83-19 4.92-5.64 1.1-16.78 3.83-24.75 6.08-7.98 2.24-21.92 6.07-31 8.51-9.08 2.43-18.98 5.28-22 6.33-3.03 1.06-12.03 4.26-20 7.12-7.98 2.86-16.3 6.11-18.5 7.23-2.2 1.11-7.15 4.14-11 6.73-3.85 2.58-9.7 7.18-13 10.21-3.3 3.04-8.03 8.17-10.5 11.41-2.48 3.24-4.84 6-5.25 6.14-0.41 0.14-0.75 1.15-0.75 2.25 0 1.1-0.59 2.34-1.31 2.75-0.72 0.41-2.57 3-4.1 5.75-1.75 3.14-3.42 8.53-4.49 14.5-1.2 6.7-1.43 10.39-0.76 12.5 0.51 1.65 1.66 4.5 2.55 6.32 0.89 1.83 3.75 5.66 6.35 8.5 2.61 2.85 5.09 4.85 5.5 4.45 0.42-0.4 0.25-1.3-0.38-2-0.63-0.7-1.3-2.51-1.5-4.02-0.2-1.51-0.29-6.01-0.21-10 0.09-3.99 0.2-8.71 0.25-10.5 0.06-1.79 0.55-3.48 1.1-3.75 0.55-0.27 0.77-1.17 0.5-2-0.28-0.83-0.05-1.73 0.5-2 0.55-0.27 0.77-0.95 0.5-1.5-0.28-0.55 0.06-1.7 0.75-2.54 0.69-0.85 0.8-1.51 0.25-1.46-0.55 0.05-0.44-0.49 0.24-1.21 0.69-0.71 0.91-1.64 0.5-2.07-0.41-0.43-0.18-0.76 0.51-0.75 0.69 0.02 1.15-0.31 1.04-0.72-0.12-0.41 0.32-1.65 0.97-2.75 0.65-1.1 0.86-2.35 0.46-2.78-0.39-0.43-0.05-0.74 0.78-0.7 1.33 0.06 1.33-0.11 0-1.57-1.36-1.48-1.31-1.56 0.5-0.81 1.47 0.6 1.8 0.49 1.25-0.41-0.41-0.68-0.41-1.23 0-1.24 0.41 0 1.3-1.24 1.98-2.75l1.22-2.74c-3.13 3.87-4.02 4.66-3.99 4.25 0.02-0.41 0.71-1.88 1.54-3.25 0.89-1.48 2.11-2.3 3-2 0.93 0.31 1.54-0.16 1.62-1.25 0.06-0.96 0.06-2.09 0-2.5-0.07-0.41 0.62-0.64 1.52-0.5 0.91 0.14 1.9-0.42 2.2-1.25 0.43-1.14 0.21-1.26-0.88-0.5-1.06 0.74-1.24 0.67-0.7-0.25 0.41-0.69 1.08-1.06 1.49-0.83 0.41 0.23 3.45-2.03 6.75-5.02 3.3-2.99 7.01-5.65 8.25-5.92 1.24-0.26 2.23-0.82 2.21-1.23-0.02-0.41 1.44-1.42 3.25-2.24 1.81-0.82 3.51-1.51 3.79-1.53 0.27-0.03 1.51-0.6 2.75-1.27 1.24-0.66 2.25-0.98 2.25-0.71 0 0.27 1.01-0.16 2.25-0.96 1.24-0.8 3.15-1.64 4.25-1.85 1.1-0.21 2.67-0.7 3.5-1.07 0.83-0.38 2.4-0.86 3.5-1.08 1.1-0.21 2.11-0.42 2.25-0.46 0.14-0.05 0.7-0.31 1.25-0.58 0.55-0.27 1.22-0.5 1.5-0.5 0.27 0 0.84-0.15 1.25-0.34 0.41-0.18 1.42-0.63 2.25-0.98 0.83-0.36 7.8-2.75 15.5-5.31 7.7-2.56 14.9-4.78 16-4.93 1.1-0.15 2.11-0.31 2.25-0.36 0.14-0.04 0.7-0.31 1.25-0.58 0.55-0.27 1.22-0.5 1.5-0.5 0.27 0 0.95-0.23 1.5-0.5 0.55-0.27 1.22-0.5 1.5-0.5 0.27 0 0.95-0.23 1.5-0.5 0.55-0.27 1.22-0.5 1.5-0.5 0.27 0 0.95-0.23 1.5-0.5 0.55-0.27 1.22-0.5 1.5-0.5 0.27 0 0.95-0.23 1.5-0.5 0.55-0.27 1.22-0.5 1.5-0.5 0.27 0 0.95-0.23 1.5-0.5 0.55-0.27 1.22-0.5 1.5-0.5 0.27 0 0.95-0.23 1.5-0.5 0.55-0.27 1.22-0.5 1.5-0.5 0.27 0 0.95-0.23 1.5-0.5 0.55-0.27 1.22-0.5 1.5-0.5 0.27 0 0.95-0.23 1.5-0.5 0.55-0.27 1.22-0.5 1.5-0.5 0.27 0 0.95-0.23 1.5-0.5 0.55-0.27 1.22-0.5 1.5-0.5 0.27 0 0.95-0.23 1.5-0.5 0.55-0.27 1.22-0.5 1.5-0.5 0.27 0 0.95-0.23 1.5-0.5 0.55-0.27 1.22-0.5 1.5-0.5 0.27 0 0.95-0.23 1.5-0.5 0.55-0.27 1.22-0.5 1.5-0.5 0.27 0 0.95-0.23 1.5-0.5 0.55-0.27 1.22-0.5 1.5-0.5 0.27 0 0.95-0.23 1.5-0.5 0.55-0.27 1.22-0.5 1.5-0.5 0.27 0 0.84-0.15 1.25-0.34 0.41-0.18 1.42-0.62 2.25-0.98 0.83-0.36 3.41-1.33 5.75-2.16 2.34-0.84 4.7-1.29 5.25-1.02 0.55 0.27 1.11 0.09 1.25-0.4 0.14-0.5 1.37-1.06 2.75-1.25 1.37-0.19 2.72-0.67 3-1.07 0.27-0.4 1.74-0.85 3.25-1 1.52-0.15 2.75-0.62 2.75-1.03 0-0.41 0.67-0.52 1.5-0.25 0.83 0.27 1.72 0.05 2-0.5 0.27-0.55 0.95-0.77 1.5-0.5 0.55 0.27 1.22 0.05 1.5-0.5 0.27-0.55 0.95-0.77 1.5-0.5 0.55 0.27 1 0.05 1-0.5 0-0.55 0.67-0.77 1.5-0.5 0.83 0.27 1.5 0.05 1.5-0.5 0-0.55 0.67-0.77 1.5-0.5q1.48 0.49 0.75-0.71c-0.54-0.88-0.13-1.02 1.5-0.5 1.63 0.51 2.04 0.38 1.5-0.5-0.54-0.88-0.13-1.02 1.5-0.5 1.63 0.51 2.04 0.38 1.5-0.5-0.54-0.88-0.13-1.02 1.5-0.5 1.63 0.51 2.04 0.38 1.5-0.5-0.54-0.88-0.13-1.02 1.5-0.5 1.63 0.51 2.04 0.38 1.5-0.5-0.54-0.88-0.13-1.02 1.5-0.5 1.31 0.41 2.25 0.29 2.25-0.29 0-0.55 0.67-0.77 1.5-0.5q1.48 0.49 0.75-0.71c-0.54-0.88-0.13-1.02 1.5-0.5 1.31 0.41 2.25 0.29 2.25-0.29 0-0.55 0.67-0.77 1.5-0.5 0.83 0.27 1.27 0.05 1-0.5-0.28-0.55 0.85-1.23 2.5-1.5 1.65-0.27 3.56-0.16 4.24 0.25 0.91 0.55 0.98 0.36 0.25-0.71-0.81-1.19-0.57-1.33 1.26-0.75 1.63 0.51 2.04 0.38 1.5-0.5-0.54-0.88-0.13-1.02 1.5-0.5 1.63 0.51 2.04 0.38 1.5-0.5-0.54-0.88-0.13-1.02 1.5-0.5 1.31 0.41 2.25 0.29 2.25-0.29 0-0.55 0.67-0.77 1.5-0.5q1.48 0.49 0.75-0.71c-0.54-0.88-0.13-1.02 1.5-0.5 1.31 0.41 2.25 0.29 2.25-0.29 0-0.55 0.67-0.77 1.5-0.5 0.83 0.27 1.5 0.05 1.5-0.5 0-0.55 0.51-0.89 1.12-0.75 0.62 0.14 1.39-0.42 1.71-1.25q0.57-1.49-0.63-0.75c-0.86 0.54-1.01 0.12-0.53-1.5 0.38-1.24 0.83-1.69 1-1 0.18 0.69 0.78 1.02 1.33 0.75 0.55-0.27 0.99-3.76 0.98-7.75-0.01-4.63-0.33-6.71-0.89-5.75-0.78 1.33-0.93 1.33-1.4 0-0.29-0.83-0.57 0.19-0.61 2.25zm-668.3 43c-0.15 5.37 0.06 9.75 0.47 9.75 0.41 0 0.64 0.34 0.5 0.75-0.14 0.41-0.03 0.79 0.25 0.83 0.27 0.05 1.62 0.7 3 1.46 1.37 0.76 2.95 1.27 3.5 1.12 0.55-0.14 1.67 0.05 2.5 0.42 0.82 0.37 2.62 0.84 4 1.03 1.37 0.19 3.17 0.4 4 0.45 0.82 0.06 2.17 0.35 3 0.65 0.82 0.3 2.4 0.7 3.5 0.88 1.1 0.18 3.57 0.58 5.5 0.88 1.92 0.3 4.17 0.58 5 0.62 0.82 0.04 2.17 0.34 3 0.67 0.82 0.32 2.62 0.73 4 0.91 1.37 0.18 3.4 0.35 4.5 0.39 1.1 0.03 2.56 0.48 3.25 1 0.69 0.52 1.7 0.71 2.25 0.44 0.55-0.27 1.56-0.17 2.25 0.24 0.69 0.41 2.37 0.85 3.75 0.99 1.37 0.13 3.17 0.28 4 0.34 0.82 0.05 2.17 0.36 3 0.69 0.82 0.32 2.51 0.73 3.75 0.91 1.24 0.18 3.49 0.5 5 0.7 1.51 0.21 2.75 0.49 2.75 0.63 0 0.14 1.12 0.41 2.5 0.6 1.37 0.19 4.07 0.59 6 0.89 1.92 0.31 4.51 0.55 5.75 0.54 1.24-0.02 2.47 0.42 2.75 0.97 0.27 0.55 1.4 0.77 2.5 0.5 1.1-0.27 2.56-0.17 3.25 0.24 0.69 0.41 2.37 0.85 3.75 0.99 1.37 0.13 3.17 0.28 4 0.34 0.82 0.05 2.17 0.36 3 0.69 0.82 0.32 2.4 0.7 3.5 0.84 1.1 0.13 4.02 0.54 6.5 0.91 2.47 0.36 4.95 0.94 5.5 1.3 0.55 0.35 1.67 0.73 2.5 0.86 0.82 0.12 3.43 0.81 5.78 1.52 2.35 0.72 4.25 1.76 4.22 2.31-0.03 0.55 0.18 0.66 0.47 0.25 0.29-0.41 3.57 0.78 7.28 2.64 3.71 1.86 8.05 4.45 9.63 5.75 1.58 1.3 5.09 4.38 7.79 6.86 2.7 2.48 4.89 5.06 4.87 5.75-0.02 0.69 0.63 1.48 1.46 1.75 0.82 0.27 1.5 1.17 1.5 2 0 0.83 0.45 1.5 1 1.5 0.55 0 0.77 0.45 0.5 1-0.28 0.55-0.16 1.11 0.25 1.25 0.41 0.14 1.84 2.5 3.18 5.25 1.34 2.75 2.35 5.34 2.25 5.75-0.1 0.41 0.35 0.75 0.99 0.75 0.64 0 0.87 0.34 0.5 0.75-0.36 0.41-0.1 1.33 0.59 2.04 0.68 0.72 0.79 1.26 0.24 1.21-0.55-0.05-0.44 0.61 0.25 1.46 0.69 0.84 1.02 1.99 0.75 2.54-0.28 0.55-0.05 1.23 0.5 1.5 0.55 0.27 1.02 1.29 1.05 2.25 0.03 0.96 0.15 6.81 0.25 13 0.11 6.19 0.42 11.26 0.7 11.27 0.27 0 2.3-1.8 4.5-4.02 2.2-2.22 4.45-4 5-3.97 0.55 0.03 1.67-0.66 2.5-1.54 0.82-0.88 2.06-1.35 2.75-1.05 0.92 0.41 1.25-1.01 1.25-5.44 0-3.3-0.73-8.14-1.62-10.75-0.89-2.61-3.02-7.67-4.73-11.25-2.29-4.8-5.78-9.25-13.34-17-5.63-5.77-12.62-12.35-15.52-14.61-2.91-2.25-7.77-5.48-10.79-7.16-3.03-1.68-8.2-3.57-11.5-4.2-3.3-0.63-10.05-2.08-15-3.22-4.95-1.14-17.55-4.22-28-6.86-10.45-2.63-20.8-5.04-23-5.35-2.2-0.31-6.03-0.82-8.5-1.13-2.48-0.31-8.55-1.25-13.5-2.09-4.95-0.84-14.22-2.73-20.61-4.2-7.25-1.68-12.42-3.43-13.78-4.68-1.2-1.1-2.65-3.58-3.22-5.5-0.57-1.92-1.34-3.18-1.71-2.78-0.38 0.39-2.48-0.22-4.68-1.36-2.2-1.14-5.45-3.49-7.22-5.22l-3.22-3.14zm224.22 122.92c-1.92 0.54-4.56 1.97-5.86 3.16-1.3 1.19-4.71 5.32-7.59 9.17-2.88 3.85-7.22 9.87-9.64 13.39-2.43 3.51-5.8 8.46-7.5 11-1.71 2.53-5.19 6.52-7.75 8.86-2.56 2.34-7.92 6.36-11.91 8.94-3.99 2.58-10.4 6.14-14.25 7.89-3.85 1.76-11.27 4.56-16.5 6.21-5.22 1.65-16.47 4.62-25 6.6-8.52 1.98-19.21 4.16-23.74 4.85-7.26 1.11-8.62 1.07-11.5-0.37-1.79-0.9-4.83-1.69-6.76-1.77-1.92-0.08-4.62-0.96-6-1.97q-2.5-1.83-2.77-5.23c-0.15-1.87 0.12-3.93 0.6-4.57q0.87-1.17-0.73-0.89c-0.88 0.16-1.49 1.02-1.35 1.92 0.14 0.9-0.09 1.64-0.5 1.64-0.41 0-0.84 3.49-0.96 7.75-0.12 4.26-0.01 7.19 0.25 6.5q0.47-1.24 3.21 1.55c2.18 2.21 4.1 2.97 9.25 3.64 3.58 0.46 9.88 0.82 14 0.81 4.13-0.02 14.03-0.78 22-1.69 7.98-0.92 25.98-3.22 40-5.13 14.03-1.9 30.23-3.96 36-4.56 5.78-0.61 16.13-0.85 23-0.53 6.88 0.32 19.93 1.04 29 1.6 9.08 0.56 37.88 1.52 64 2.14 26.13 0.62 63.25 1.29 82.5 1.5 25.47 0.28 40.31 0.92 54.5 2.38 10.73 1.1 32.78 3.88 49 6.18 18.73 2.65 30.87 3.93 33.25 3.52 2.06-0.37 4.54-1.46 5.5-2.43 0.96-0.97 3.55-1.9 5.75-2.05 2.75-0.19 4.87-1.13 6.76-2.98 1.79-1.76 3.01-4.27 3.48-7.2l0.73-4.5c1.19 9.18 1.28 8.72 1.17 2.25-0.08-4.26-0.48-7.75-0.89-7.75-0.41 0-0.52-0.68-0.25-1.5 0.28-0.83 0.05-1.28-0.5-1-0.55 0.27-1.46-0.29-2.02-1.25-0.77-1.32-0.86-0.89-0.38 1.75 0.35 1.92 0.36 4.74 0.02 6.25-0.38 1.7-1.77 3.32-3.62 4.25-1.65 0.82-4.12 1.5-5.5 1.5-1.37 0-3.74 0.91-5.25 2.03-1.51 1.12-4.1 2.03-5.75 2.02-1.65-0.02-8.17-1.19-14.5-2.6-6.32-1.42-19.37-4.55-29-6.95-9.62-2.41-20.87-5.59-25-7.07-4.12-1.47-10.54-4.2-14.25-6.06-3.71-1.85-11.14-7.12-16.5-11.7-5.36-4.59-13.42-12.57-17.91-17.75-4.49-5.18-10.11-11.31-12.5-13.61-2.39-2.31-5.58-4.67-7.09-5.25-1.51-0.59-4.21-1.07-6-1.08-1.79-0.01-8.65 0.75-15.25 1.69-11.3 1.62-13.68 1.62-41 0.04-15.95-0.92-34.4-2.57-41-3.66-6.6-1.09-17.17-3.15-23.5-4.56-6.32-1.41-16-3.45-21.5-4.53-5.5-1.07-10.22-1.92-10.5-1.87-0.27 0.05-2.07 0.53-4 1.08z"/>
		<path id="Path 5" class="s5" d="m868.22 534.22c0.8 1.24 1.52 5.12 1.62 8.75 0.11 3.59-0.35 8.11-1.01 10.03-0.67 1.92-2.14 4.28-3.27 5.23-1.13 0.96-3.86 2.06-6.06 2.46-2.2 0.4-5.13 1.71-6.5 2.92-2.47 2.18-2.81 2.2-30.5 1.8-15.4-0.23-29.13-0.63-30.5-0.91-1.38-0.28-6.78-0.94-12-1.47-5.23-0.52-32.67-1.31-61-1.74-28.33-0.44-119.9-0.78-203.5-0.77-151.59 0.02-152.03 0.02-163.5 2.18-6.33 1.19-17.35 2.7-24.5 3.35-7.15 0.65-31 1.24-53 1.32-28.72 0.09-41.62-0.22-45.75-1.12-3.16-0.69-6.99-2.31-8.5-3.6-1.51-1.3-5-3.1-7.75-4-2.75-0.91-6.35-2.81-8-4.24l-3-2.59c-0.49 8.28-0.38 12.59-0.07 14.93 0.31 2.34 1.02 4.25 1.57 4.25 0.55 0 2.27 1.24 3.82 2.75 1.55 1.51 4.03 3.54 5.5 4.5 1.47 0.96 3.24 1.76 3.93 1.77 0.69 0.01 2.71 3.16 4.5 7 2.75 5.9 3.83 7.22 7 8.52 2.06 0.85 7.57 3.49 12.25 5.87 4.67 2.38 10.52 4.82 13 5.42 2.47 0.59 10.57 1.56 18 2.15 7.42 0.59 20.7 2.18 29.5 3.52 8.8 1.34 20.05 2.92 25 3.5 4.95 0.58 14.17 1.98 20.5 3.1 6.32 1.12 16 3.16 21.5 4.52 5.5 1.37 14.95 4.06 21 5.97 6.05 1.91 11.9 3.85 13 4.32 1.1 0.47 4.02 1.66 6.5 2.65 2.47 0.99 6.3 2.53 8.5 3.44 2.2 0.91 5.8 2.39 8 3.29 2.2 0.9 6.47 2.31 9.5 3.14 3.02 0.82 10.45 2.2 16.5 3.05 6.05 0.86 16.62 1.95 23.5 2.43 10.44 0.73 14.64 0.55 25.5-1.07 9.35-1.39 15.81-1.78 23-1.39 5.5 0.3 16.97 0.77 25.5 1.05 8.52 0.29 20.9 0.05 27.5-0.52 6.6-0.57 16.05-1.97 21-3.11 4.95-1.14 10.58-2.97 12.5-4.07 1.92-1.11 3.84-2.64 4.25-3.4 0.41-0.77 3.11-2.7 6-4.28 2.89-1.58 8.17-3.87 11.75-5.08 3.58-1.21 15.05-4.16 25.5-6.55 10.45-2.39 22.6-5.06 27-5.92 4.4-0.87 14.08-2.74 21.5-4.16 7.42-1.42 22.95-4.78 34.5-7.45 11.55-2.68 24.37-5.37 28.5-5.98 4.12-0.61 12.22-1.94 18-2.96 5.77-1.02 13.42-2.15 17-2.51 3.58-0.36 9.65-1.6 13.5-2.76 3.85-1.16 9.02-2.2 11.5-2.31 2.47-0.12 7.2-0.52 10.5-0.89 3.3-0.37 7.12-0.87 8.5-1.1 1.37-0.24 4.08-1.79 6-3.45 2.15-1.85 3.79-2.63 4.25-2.01 0.48 0.64 1.48 0.37 2.76-0.74 1.1-0.96 2-2.09 2-2.5-0.01-0.41 1.81-2.44 4.04-4.5l4.04-3.75c0.19-15.14 0.35-16.01 0.82-12.5l0.62 4.5c1.13-8.53 1.39-14.83 1.32-19.5-0.11-7.03-0.27-7.81-0.91-4.5-0.77 3.96-0.77 3.95-0.41-0.74 0.26-3.47-0.03-4.87-1.09-5.25-0.79-0.28-1.94-0.51-2.54-0.51-0.71 0-0.59 0.8 0.32 2.22zm-496.34 229.53c-0.06 0.41-0.06 1.09 0 1.5 0.07 0.41-0.33 0.75-0.88 0.75-0.55 0-1.97 0.79-3.15 1.75-1.18 0.96-2.98 2.54-4 3.5-1.02 0.96-2.3 1.75-2.85 1.75-0.55 0-1 0.45-1 1 0 0.55-0.68 1-1.5 1-0.83 0-1.48 0.34-1.46 0.75 0.02 0.41-2.34 1.82-5.25 3.13-2.91 1.31-5.97 2.51-6.79 2.67-0.83 0.16-1.61 0.33-1.75 0.37-0.14 0.05-0.7 0.3-1.25 0.58-0.55 0.27-1.23 0.5-1.5 0.5-0.28 0-0.95 0.22-1.5 0.5-0.55 0.27-1.23 0.5-1.5 0.5-0.28 0-0.84 0.15-1.25 0.34-0.41 0.18-1.43 0.63-2.25 0.98-0.83 0.36-2.63 0.85-4 1.09-1.38 0.24-2.5 0.51-2.5 0.59 0 0.09-0.79 0.34-1.75 0.58-0.96 0.23-2.31 0.55-3 0.7-0.69 0.15-1.81 0.6-2.5 1-0.69 0.4-1.59 0.5-2 0.23-0.41-0.27-1.33 0.06-2.04 0.75-0.72 0.68-1.26 0.79-1.21 0.24 0.05-0.55-0.61-0.44-1.46 0.25-0.84 0.69-1.88 1.2-2.29 1.13-0.41-0.06-0.98-0.03-1.25 0.08-0.28 0.11-1.29 0.38-2.25 0.62-0.96 0.23-2.54 0.61-3.5 0.84-0.96 0.24-1.98 0.53-2.25 0.66-0.28 0.12-0.95 0.33-1.5 0.46-0.55 0.12-1.23 0.32-1.5 0.42-0.28 0.11-1.29 0.38-2.25 0.62-0.96 0.23-2.54 0.61-3.5 0.84-0.96 0.24-1.75 0.5-1.75 0.58 0 0.08-0.68 0.32-1.5 0.52-0.83 0.2-2.63 0.64-4 0.98-1.38 0.34-3.18 0.78-4 0.98-0.83 0.2-1.61 0.4-1.75 0.44-0.14 0.05-0.7 0.3-1.25 0.58-0.55 0.27-1.23 0.5-1.5 0.5-0.28 0-1.06 0.13-1.75 0.3-0.69 0.16-1.08 0.95-0.88 1.75 0.28 1.08-0.1 1.24-1.5 0.62-1.03-0.46-0.18 0.66 1.89 2.5 2.06 1.83 3.41 3.73 3 4.23-0.42 0.49 0.14 0.44 1.24-0.11 1.41-0.71 3.04-0.62 5.5 0.31 1.92 0.72 5.64 1.33 8.25 1.36 2.61 0.02 9.36-0.88 15-2.01 5.64-1.13 14.97-3.39 20.75-5.03 5.77-1.64 14.1-4.7 18.5-6.8 4.4-2.09 11.49-6.58 15.75-9.96 4.26-3.39 9.33-8.52 11.25-11.41 1.93-2.89 3.51-6.49 3.5-8 0-1.51-0.56-3.08-1.25-3.48-0.69-0.39-2.04-0.62-3-0.5-0.96 0.13-1.54-0.22-1.29-0.77 0.26-0.55 0.26-1 0-1-0.25 0-0.51 0.34-0.58 0.75zm262.12 0.45c-0.84 0.72-1.33 2.81-1.21 5.25 0.11 2.48 1.29 5.8 3.03 8.55 1.56 2.47 4.61 6.09 6.76 8.03 2.16 1.95 6.62 5.35 9.92 7.56 3.3 2.21 8.7 5.18 12 6.6 3.3 1.42 8.92 3.51 12.5 4.65 3.57 1.13 10.77 3.18 16 4.55 5.22 1.36 14.45 3.45 20.5 4.63 10.25 1.99 11.27 2.03 15 0.56 2.2-0.86 5.24-1.57 6.75-1.57 1.51-0.01 2.75-0.46 2.75-1.01 0-0.55 0.45-0.78 1-0.5 0.55 0.27 1.34-1.31 1.75-3.52 0.41-2.21 1.09-4.01 1.5-4 0.41 0.01 0.52-0.43 0.25-0.98-0.28-0.55-0.95-0.78-1.5-0.5-0.55 0.27-1.23 0.05-1.5-0.5-0.28-0.55-0.95-0.78-1.5-0.5-0.55 0.27-1.56 0.18-2.25-0.22-0.69-0.4-2.15-0.85-3.25-1.01-1.1-0.16-2.68-0.58-3.5-0.94-0.83-0.35-2.06-0.57-2.75-0.49-0.69 0.09-1.48-0.29-1.75-0.84-0.28-0.55-1.18-0.78-2-0.5-0.83 0.27-1.5 0.05-1.5-0.5 0-0.55-0.9-0.78-2-0.5-1.1 0.27-2 0.05-2-0.5 0-0.55-0.45-0.78-1-0.5-0.55 0.27-1.56 0.18-2.25-0.2-0.69-0.39-2.6-0.84-4.25-1.02-1.65-0.17-3.11-0.76-3.25-1.3-0.14-0.54-0.93-0.76-1.75-0.48-0.83 0.27-1.73 0.05-2-0.5-0.28-0.55-1.18-0.78-2-0.5-0.83 0.27-1.5 0.05-1.5-0.5 0-0.55-0.9-0.78-2-0.5-1.1 0.27-2 0.05-2-0.5 0-0.55-0.68-0.78-1.5-0.5-0.83 0.27-1.5 0.16-1.5-0.25 0-0.41-1.47-0.81-3.25-0.88-1.79-0.07-3.36-0.64-3.5-1.25-0.14-0.62-0.93-0.9-1.75-0.62-0.83 0.27-1.73 0.05-2-0.5-0.28-0.55-0.95-0.78-1.5-0.5-0.55 0.27-1.23 0.05-1.5-0.5-0.28-0.55-1.18-0.78-2-0.5-0.83 0.27-1.5 0.05-1.5-0.5 0-0.55-0.68-0.78-1.5-0.5-0.83 0.27-1.5 0.05-1.5-0.5 0-0.55-0.34-0.79-0.75-0.54-0.41 0.25-2.44-0.43-4.5-1.5-2.06-1.08-3.99-1.62-4.28-1.21-0.29 0.41-0.51 0.19-0.5-0.5 0.02-0.69-0.42-1.03-0.97-0.75-0.55 0.27-1 0.05-1-0.5 0-0.55-1.13-1.23-2.5-1.5-1.38-0.28-2.5-0.95-2.5-1.5 0-0.55-0.45-1-1-1-0.55 0-1.71-0.56-2.57-1.25-0.86-0.69-3.56-3.16-6-5.5-3.06-2.93-5.3-4.25-7.23-4.25-1.54 0-3.43 0.54-4.2 1.2z"/>
		<path id="Path 6" class="s6" d="m610.5-763.26c2.75 0.2 7.48 0.2 10.5 0 3.02-0.2 0.77-0.37-5-0.37-5.77 0-8.25 0.17-5.5 0.37zm-310.5 27.99c1.93 0.21 5.3 0.21 7.5 0 2.2-0.22 0.63-0.39-3.5-0.39-4.13 0-5.93 0.17-4 0.39zm-313.53 311.77c0.39 2.2 2.53 8.95 4.75 15 2.22 6.05 6.5 15.95 9.52 22 3.01 6.05 7.68 14.71 10.37 19.25 2.69 4.54 5.11 8.25 5.39 8.25 0.27 0 0.21-0.56-0.14-1.25-0.36-0.69 1.33 0.58 3.75 2.81 2.41 2.23 6.41 5.65 8.89 7.61 2.47 1.95 10.35 7.39 17.5 12.09 7.15 4.69 16.6 10.51 21 12.92 4.4 2.41 10.02 5.15 12.5 6.09 2.47 0.95 5.62 1.71 7 1.7 1.37-0.01 5.65 1.16 9.5 2.59 3.85 1.43 13.3 4.37 21 6.54 7.7 2.17 19.4 5.09 26 6.48 6.6 1.39 17.62 3.44 24.5 4.54 10.64 1.72 20.74 2.17 68 3.09 40.69 0.78 59.1 0.77 69-0.06 7.42-0.61 20.47-1.83 29-2.7 13.38-1.37 27.24-1.51 101.5-1 47.3 0.33 97.47 0.82 111.5 1.1 14.02 0.28 31.58 0.96 39 1.51 7.42 0.55 46.12 1.15 86 1.34 47.91 0.22 78.1 0.78 89 1.65 13.11 1.04 20.31 1.07 35 0.15 10.17-0.63 23.34-1.84 29.25-2.68 5.91-0.84 12.66-1.96 15-2.5 2.34-0.53 7.17-0.98 10.75-0.98 3.58-0.01 8.64-0.69 11.25-1.53 2.61-0.83 4.97-1.51 5.25-1.51 0.28 0 2.64-0.62 5.25-1.37 2.61-0.76 8.01-2.78 12-4.5 3.99-1.72 7.7-3.13 8.25-3.13 0.55 0 1.56-0.47 2.25-1.04 0.69-0.57 6.99-4.84 14-9.5 7.01-4.65 12.86-8.25 13-7.99 0.14 0.26 2.95-2.22 6.25-5.51 3.3-3.29 5.44-5.98 4.75-5.97-0.69 0.01-1.48 0.8-1.76 1.76-0.28 0.96-0.84 1.42-1.25 1.03-0.41-0.4 1.05-2.65 3.23-5 2.19-2.36 4.44-4.3 5-4.33 0.57-0.02 0.92-0.58 0.78-1.25-0.14-0.66 0.09-0.99 0.5-0.73 0.41 0.26 3.51-3.45 6.88-8.25 3.37-4.8 8.22-12.55 10.78-17.22 2.56-4.67 4.64-8.61 4.62-8.75-0.02-0.14-3.66 2.56-8.09 6-4.44 3.44-9.95 7.31-12.25 8.61-2.31 1.3-8.91 4.78-14.69 7.73-7.39 3.78-12.57 5.71-17.5 6.52-4.39 0.73-12.41 0.94-21.5 0.58-11.4-0.46-18.77-1.46-34.5-4.68-18.41-3.78-21.91-4.18-44-5.06-13.2-0.53-30.3-1.83-38-2.89-7.7-1.07-17.83-2.41-22.5-2.98-4.67-0.57-16.83-1.5-27-2.06-10.17-0.56-22.78-1.52-28-2.11-5.56-0.64-10.95-1.88-13-3-1.92-1.04-8.9-3.42-15.5-5.28-6.6-1.87-16.5-4.6-22-6.08-5.5-1.49-10.67-2.94-11.5-3.23-1.19-0.43-1.09-0.7 0.5-1.36 1.1-0.45 5.37-0.87 9.5-0.92 4.12-0.06 12.47-0.66 18.55-1.32 8.46-0.93 11.51-1.67 13-3.15 1.07-1.06 5.21-4.32 9.2-7.25 3.99-2.93 7.81-5.31 8.5-5.3q1.24 0.01 0.25-0.93c-0.55-0.52-4.83-1.24-9.5-1.61-4.67-0.36-93.33-0.73-197-0.82-103.67-0.09-195.25 0.01-203.5 0.22-8.25 0.21-15.77 0.66-16.72 1-1.46 0.53-1.19 1.11 1.75 3.87 2.68 2.51 3.47 4.05 3.47 6.75v3.5c17.17 0 20.82 0.37 20.5 1-0.28 0.56 1.58 1.25 4.25 1.57 2.61 0.32 7.22 1.01 10.25 1.54 3.02 0.53 5.72 1.17 6 1.42 0.27 0.26-1.75 1.42-4.5 2.59-4.15 1.76-8.16 2.27-23.5 2.97-10.18 0.47-24.8 1.3-32.5 1.85-11.51 0.81-14.98 1.44-19.5 3.52-4.16 1.92-10.12 3.16-24.5 5.08-10.45 1.4-24.18 3.17-30.5 3.95-6.33 0.78-19.83 1.48-30 1.55-10.18 0.08-25.25-0.35-33.5-0.95-8.25-0.61-21.53-1.54-29.5-2.07-8.59-0.58-16.94-1.73-20.5-2.83-3.3-1.01-10.73-4.13-16.5-6.92-5.78-2.79-14.33-7.79-19-11.12-4.68-3.32-10.75-8.63-13.5-11.78-2.75-3.15-6.58-6.38-8.5-7.17-1.93-0.79-5.53-2.8-8-4.47-2.48-1.66-6.02-4.42-7.87-6.12l-3.38-3.11z"/>
		<path id="Path 7" class="s7" d="m224-418.02c-44.34 0.57-63.07 1.18-73.5 2.39-7.7 0.89-18.5 2.58-24 3.75-5.5 1.17-10.68 2.48-11.5 2.92-0.82 0.44-6 2.01-11.5 3.49-5.5 1.48-14.95 4.49-21 6.7-6.05 2.2-16.18 6.57-22.5 9.71-6.32 3.14-16 8.55-21.5 12.01-5.5 3.47-13.35 8.84-17.44 11.93-4.1 3.09-11.13 8.99-15.64 13.12-4.51 4.12-11.22 10.87-14.92 15-3.7 4.12-9.75 11.55-13.44 16.5-3.7 4.95-8.99 12.82-11.78 17.5-2.78 4.67-7.41 13.23-10.29 19-2.88 5.77-6.13 12.75-7.22 15.5-1.1 2.75-3.97 10.62-6.39 17.5-2.42 6.87-5.29 16.66-6.39 21.75-1.09 5.09-2.64 13.64-3.43 19-0.8 5.36-1.68 14.25-1.96 19.75l-0.51 10c2.2-17.43 3.53-23.34 4.59-25.22 1-1.77 2.04-3.02 2.32-2.78 0.28 0.24 1.74-0.79 3.25-2.28 1.94-1.92 3.35-5.08 4.79-10.72 1.13-4.4 2.88-8.9 3.9-10 1.02-1.1 3.19-5.38 4.82-9.5 2.83-7.17 3.11-7.51 6.35-7.7 1.87-0.11 5.53-1.12 8.14-2.25 2.61-1.13 5.65-2.05 6.75-2.05 1.1 0 6.84 1.22 12.75 2.71 9.96 2.52 11.93 2.69 26.75 2.33 8.8-0.22 24.1-0.39 34-0.38 12.14 0.01 21.91 0.6 30 1.81 9.77 1.46 14.51 1.64 25.5 0.98 7.43-0.45 18.22-0.77 24-0.71 5.78 0.07 18.15 1.02 27.5 2.11 9.35 1.1 25.77 2.52 36.5 3.14 18.32 1.08 20.32 1.01 33-1.02 11.47-1.84 15.68-2.06 28-1.48 7.98 0.38 22.6 0.87 32.5 1.1 10.14 0.23 24.22 1.29 32.25 2.41 7.84 1.1 18.3 2 23.25 2 6.2 0 12.19-0.78 19.25-2.5 5.76-1.4 13.21-2.5 17-2.5 6.06 0 7.11 0.31 10.25 3 2.41 2.06 3.7 4.17 4.13 6.75 0.35 2.06 1.19 4.87 1.87 6.25 0.69 1.37 1.98 4.19 2.87 6.25 0.9 2.06 1.63 4.2 1.63 4.75 0 0.55 1.14 2.24 2.54 3.75 1.4 1.51 2.3 3.31 2 4-0.3 0.69-0.31 1.25-0.04 1.25 0.27 0 3.5-5.51 7.17-12.25 3.67-6.74 9.83-17.2 13.68-23.25 3.86-6.05 10.06-15.27 13.79-20.5 3.74-5.23 9.28-12.54 12.32-16.25 3.48-4.24 6.28-6.75 7.54-6.75 1.94 0 2 0.66 1.99 23.75-0.01 17.69 0.39 25.92 1.59 32.25 0.89 4.67 2.53 10.97 3.66 14 1.13 3.02 2.69 6.4 3.48 7.5l1.42 2c-0.43-3.1 0.07-5.13 0.83-6.5 0.76-1.38 2.05-3.18 2.88-4 0.83-0.83 2.37-1.95 3.43-2.5 1.05-0.55 3.56-4.12 5.57-7.93 2.01-3.82 4.92-7.87 6.47-9 2.57-1.88 4.81-2.13 24.5-2.78 11.93-0.39 24.6-1.21 28.18-1.82 4.35-0.75 13.79-0.89 28.5-0.44 17.78 0.55 24.5 0.36 35-0.99 7.15-0.92 20.65-3.02 30-4.66 13.31-2.33 19.93-2.97 30.5-2.95 7.42 0.01 20.48-0.69 29-1.56 8.52-0.86 17.75-1.28 20.5-0.92 2.75 0.36 10.63 2.17 17.5 4.02 6.88 1.85 15.99 3.85 20.25 4.45 4.26 0.59 13.71 1.33 21 1.64 7.29 0.3 20.45 1.43 29.25 2.5 8.8 1.07 19.83 2.42 24.5 2.99 4.67 0.58 12.21 1.92 16.75 3 4.54 1.07 11.74 1.95 16 1.96 4.26 0 10.34-0.68 13.5-1.5 3.16-0.83 9.35-3.31 13.75-5.51 5.63-2.81 9.26-3.99 12.25-3.98 3.75 0.02 4.77 0.58 8.75 4.76 2.48 2.6 6.02 7.65 7.87 11.22 1.86 3.58 5.11 9.2 7.23 12.5 3.16 4.93 4.22 7.97 5.94 17 1.14 6.05 2.73 13.92 3.52 17.5 0.8 3.57 1.43 8.3 1.42 10.5-0.02 3.02 0.6 4.61 2.56 6.5 1.43 1.37 4.02 4.74 5.78 7.47 3.11 4.87 3.19 5.28 3.79 20 0.33 8.34 0.5-1.21 0.37-21.47-0.17-27.04-0.65-39.74-1.87-49-0.91-6.88-2.56-16.78-3.67-22-1.11-5.23-2.85-11.08-3.87-13-1.02-1.93-4.02-9.58-6.67-17-2.64-7.43-8.2-20.25-12.36-28.5-4.15-8.25-10.43-19.27-13.96-24.5-3.53-5.23-8.88-12.65-11.91-16.5-3.02-3.85-10.48-11.96-16.58-18.03-6.1-6.06-14.92-13.97-19.59-17.58-4.67-3.61-10.75-8.13-13.5-10.04-2.75-1.92-9.5-6.02-15-9.12-5.5-3.11-14.73-7.71-20.5-10.23-5.77-2.52-15.34-6.13-21.25-8.04-5.91-1.9-14.91-4.51-20-5.8-5.09-1.29-10.15-2.82-11.25-3.39-1.1-0.58-4.48-1.55-7.5-2.18-3.02-0.62-10.45-1.81-16.5-2.64-6.05-0.84-21.35-1.94-34-2.45-12.65-0.51-110.52-1.12-217.5-1.35-106.98-0.24-221.27-0.09-254 0.33zm-295.61 251.02c0 6.87 0.16 9.57 0.35 6 0.2-3.58 0.2-9.2 0-12.5-0.19-3.3-0.35-0.38-0.35 6.5zm402.11 768.75c54.45 0.14 143.1 0.14 197 0 53.9-0.14 9.35-0.26-99-0.26-108.35 0-152.45 0.12-98 0.26z"/>
		<path id="Path 8" fill-rule="evenodd" class="s8" d="m37-1664l179.25 0.19c131.48 0.13 163.39 0.37 119.75 0.87-44.8 0.52-62.96 1.09-73.5 2.31-7.7 0.89-18.5 2.58-24 3.75-5.5 1.17-10.68 2.48-11.5 2.92-0.82 0.44-6 2.01-11.5 3.49-5.5 1.48-14.95 4.49-21 6.7-6.05 2.2-16.18 6.57-22.5 9.71-6.32 3.14-16 8.55-21.5 12.01-5.5 3.47-13.35 8.84-17.44 11.93-4.1 3.09-11.13 8.99-15.64 13.12-4.51 4.13-11.22 10.88-14.92 15-3.7 4.13-9.75 11.55-13.44 16.5-3.7 4.95-8.99 12.83-11.78 17.5-2.78 4.67-7.41 13.22-10.29 19-2.88 5.78-6.13 12.75-7.22 15.5-1.1 2.75-3.97 10.63-6.39 17.5-2.42 6.88-5.29 16.66-6.39 21.75-1.09 5.09-2.64 13.64-3.43 19-0.79 5.36-1.94 16.72-2.57 25.25-0.81 11.18-1.03 89.94-0.77 282.5 0.33 247.79 0.48 268.04 2.12 281.5 0.97 7.97 2.85 20.35 4.17 27.5 1.33 7.15 3.57 17.05 5 22 1.42 4.95 3.98 12.83 5.69 17.5 1.7 4.67 5.3 13.22 7.99 19 2.7 5.78 7.61 15 10.91 20.5 3.31 5.5 8.69 13.6 11.96 18 3.27 4.4 9.66 12.23 14.2 17.39 4.53 5.16 13.33 13.71 19.56 19 6.22 5.29 15.22 12.32 20 15.62 4.77 3.31 11.83 7.9 15.68 10.2 3.85 2.3 12.63 6.88 19.5 10.18 6.88 3.29 17.23 7.61 23 9.6 5.77 1.98 14.77 4.69 20 6.01 5.23 1.32 14.45 3.29 20.5 4.37 6.05 1.09 18.88 2.79 28.5 3.79 16.45 1.71 33.15 1.82 278.5 1.79 242.08-0.03 262.3-0.16 279-1.8 9.9-0.97 23.17-2.65 29.5-3.73 6.33-1.08 16.45-3.27 22.5-4.89 6.05-1.61 15.72-4.55 21.5-6.54 5.78-1.99 16.8-6.7 24.5-10.46 7.7-3.76 18.05-9.39 23-12.51 4.95-3.12 13.24-8.9 18.42-12.84 5.19-3.95 14.36-11.9 20.38-17.68 6.03-5.78 14.21-14.55 18.19-19.5 3.97-4.95 10.17-13.5 13.78-19 3.6-5.5 9.35-15.62 12.77-22.5 3.42-6.87 7.77-16.55 9.65-21.5 1.89-4.95 4.93-14.17 6.77-20.5 1.84-6.33 4.28-17.13 5.42-24 1.14-6.87 2.65-17.67 3.35-24 1-9.02 1.27-71.84 1.27-291.5 0-266.14-0.09-280.69-1.84-294-1.01-7.7-2.72-18.05-3.79-23-1.08-4.95-2.79-10.58-3.81-12.5-1.02-1.92-4.01-9.58-6.66-17-2.64-7.42-8.2-20.25-12.36-28.5-4.15-8.25-10.43-19.28-13.96-24.5-3.53-5.22-8.88-12.65-11.91-16.5-3.02-3.85-10.48-11.96-16.58-18.03-6.1-6.06-14.92-13.97-19.59-17.58-4.67-3.61-10.75-8.13-13.5-10.04-2.75-1.92-9.5-6.02-15-9.12-5.5-3.11-14.72-7.71-20.5-10.23-5.78-2.52-15.34-6.13-21.25-8.04-5.91-1.9-14.91-4.51-20-5.8-5.09-1.29-10.15-2.83-11.25-3.42-1.1-0.58-5.83-1.77-10.5-2.64-4.67-0.87-14.58-2.3-22-3.18-10.32-1.23-28.94-1.78-79-2.34-51.43-0.58-25.49-0.77 307-1.08v1024h-1024zm622.5 0.42c11 0 15.73 0.15 10.5 0.32-5.23 0.18-14.23 0.18-20 0.01-5.77-0.18-1.5-0.33 9.5-0.33z"/>
		<path id="Path 9" class="s9" d="m-59-410.92c-2.47 1.12-6.02 2.12-7.89 2.23-3.24 0.18-3.52 0.52-6.35 7.69-1.63 4.13-3.8 8.4-4.82 9.5-1.02 1.1-2.67 5.55-3.66 9.88-1.39 6.09-2.49 8.53-4.79 10.72-1.65 1.56-3.21 2.65-3.49 2.42-0.28-0.22-1.26 0.8-2.19 2.29-1.04 1.65-2.3 7.69-3.29 15.69-1.19 9.69-1.7 24.85-1.98 59.5l-0.37 46.5c1.93-37.2 2.57-45.41 2.66-42.25 0.15 4.93 0.42 5.69 1.92 5.32 0.96-0.23 3.1-0.68 4.75-0.99 1.94-0.36 3.26-1.36 3.74-2.82 0.4-1.24 0.74-3.72 0.75-5.51 0-1.79 0.46-3.25 1.01-3.25 0.55 0 1-1.57 1-3.5 0-2 0.43-3.29 1-3 0.55 0.27 1.01 1.29 1.02 2.25 0 0.96 0.42 2.43 0.93 3.25 0.79 1.28 1.75 1.08 6.73-1.42 5.16-2.6 6.5-2.86 11.82-2.32 4.53 0.47 8.94 2.07 18 6.56 6.6 3.27 14.47 6.43 17.5 7.03 3.03 0.6 8.87 1.37 13 1.71 4.12 0.35 14.47 1.5 23 2.57 8.53 1.07 28.78 2.48 45 3.14 16.22 0.66 39.4 1.08 51.5 0.94 12.81-0.16 26.07-0.89 31.75-1.74 5.36-0.81 13.35-1.47 17.75-1.47 4.4 0 14.19 0.94 21.75 2.08 10.56 1.6 16.88 1.98 27.25 1.65 11.25-0.36 14.67-0.86 20.5-2.98 3.85-1.39 10.37-3.76 14.5-5.25 4.12-1.49 9.98-2.95 13-3.25 3.02-0.29 6.74-0.25 8.25 0.11 1.51 0.35 4.17 1.88 5.9 3.39 1.73 1.51 4.24 5.23 5.58 8.25 1.33 3.02 3.47 8.2 4.74 11.5 1.58 4.1 2.03 6.55 1.42 7.75-0.49 0.96-0.78 1.97-0.64 2.25 0.14 0.27 4.35-4.56 9.37-10.75 5.01-6.19 13-14.96 17.75-19.5 4.75-4.54 9.31-8.25 10.13-8.25 0.82 0 2.25 0.79 3.17 1.75 0.92 0.96 2.72 4.11 4 7 1.28 2.89 2.67 7.06 3.08 9.27 0.41 2.21 1.09 4.01 1.5 4 0.41-0.01 0.74-0.58 0.72-1.27-0.01-0.69 1-1.85 2.25-2.58 1.9-1.1 3-1.1 6.55 0 2.35 0.73 4.27 1.78 4.27 2.33-0.01 0.55 0.4 0.33 0.91-0.5 0.76-1.25 1.34-1.29 3.48-0.25 1.48 0.72 3.95 0.98 5.82 0.62 2.67-0.51 3.87-0.09 6.75 2.35 1.93 1.64 4.32 4.51 5.32 6.38l1.82 3.4c-0.87-16.27-1.61-25.73-2.21-31.5-0.6-5.82-0.78-14.96-0.41-20.5 0.37-5.5 1.25-13.37 1.97-17.5 0.72-4.12 2.28-10.87 3.47-15 1.19-4.12 3.21-10.42 4.48-14 1.27-3.57 2.35-7.4 2.41-8.5 0.06-1.1-1-3.24-2.37-4.75-1.36-1.51-2.48-3.2-2.48-3.75 0-0.55-0.73-2.69-1.63-4.75-0.89-2.06-2.18-4.87-2.87-6.25-0.68-1.37-1.52-4.19-1.87-6.25-0.43-2.58-1.72-4.69-4.13-6.75-3.14-2.69-4.19-3-10.25-3-3.79 0-11.24 1.1-17 2.5-7.06 1.72-13.05 2.5-19.25 2.5-4.95 0-15.41-0.9-23.25-2-8.03-1.12-22.11-2.18-32.25-2.41-9.9-0.23-24.52-0.72-32.5-1.1-12.32-0.58-16.53-0.36-28 1.48-12.68 2.03-14.68 2.1-33 1.02-10.73-0.62-27.15-2.04-36.5-3.14-9.35-1.09-21.72-2.04-27.5-2.11-5.78-0.06-16.57 0.26-24 0.71-10.99 0.66-15.73 0.48-25.5-0.98-8.09-1.21-17.86-1.8-30-1.81-9.9-0.01-25.2 0.16-34 0.38-14.82 0.36-16.79 0.19-26.75-2.33-5.91-1.49-11.76-2.7-13-2.69-1.24 0.01-4.28 0.94-6.75 2.06zm724-0.6c-6.33 0.74-18.02 1.37-26 1.38-11.51 0.03-18 0.65-31.5 3.02-9.35 1.64-22.85 3.74-30 4.66-10.5 1.35-17.22 1.54-35 0.99-14.71-0.45-24.15-0.31-28.5 0.44-3.58 0.61-16.25 1.43-28.18 1.82-19.69 0.65-21.93 0.9-24.5 2.78-1.55 1.13-4.46 5.18-6.47 9-2.01 3.81-4.52 7.38-5.57 7.93-1.06 0.55-2.6 1.68-3.43 2.5-0.83 0.83-2.12 2.63-2.88 4-0.76 1.38-1.25 3.4-1.09 4.5l0.28 2c-2.57-3.27-2.19-1.44-0.52 3 1.44 3.85 5.06 14.2 8.04 23 2.98 8.8 6.49 20.27 7.8 25.5 1.31 5.23 2.87 12.99 3.45 17.25 0.59 4.26 1.06 10.56 1.05 14l-0.02 6.25c8.94 2.1 12.44 3.17 13.54 3.73 1.1 0.55 2.45 0.76 3 0.46 0.55-0.31 3.92 0.04 7.5 0.77 3.58 0.73 6.62 1.26 6.76 1.18 0.15-0.08-0.18-7.56-0.72-16.64-0.55-9.07-1.12-21.08-1.27-26.67-0.15-5.59 0.09-10.54 0.53-11 0.44-0.46 1.57-0.33 2.5 0.28 0.94 0.62 5.42 6.02 9.97 12 4.55 5.99 13.78 18.68 20.5 28.21 7.88 11.15 12.47 16.85 12.91 16 0.38-0.73 0.49-1.66 0.25-2.07-0.23-0.41 0.13-0.73 0.82-0.71 0.69 0.03 1.92-0.67 2.75-1.54 0.83-0.87 2.17-1.58 3-1.57 0.83 0.01 3.08-1.19 5-2.66 1.92-1.47 6.2-3.89 9.5-5.37 3.3-1.49 8.7-3.2 12-3.81 3.3-0.6 8.92-1.08 12.5-1.06 3.58 0.02 11.45 0.69 17.5 1.48 6.05 0.79 15.73 1.97 21.5 2.62 8.77 0.97 14.13 0.88 32.5-0.59 17.61-1.41 23.79-1.54 31-0.68 4.95 0.6 14.4 2.62 21 4.5 6.6 1.87 13.12 3.67 14.5 3.98 1.37 0.32 11.05 2.16 21.5 4.08 10.45 1.93 25.98 4.22 34.5 5.09 8.52 0.86 19.1 2.19 23.5 2.94 4.4 0.75 13.4 2.93 20 4.85 6.6 1.91 14.7 4.06 18 4.77 4.98 1.08 8.03 1.06 18-0.11 6.6-0.78 14.36-1.31 17.25-1.18 2.89 0.12 6.94 1.08 9 2.12 2.06 1.05 4.73 2.96 5.92 4.25 1.2 1.29 4.06 5.73 6.37 9.85 2.31 4.13 5.27 8.96 6.58 10.75 1.31 1.79 2.39 4.04 2.41 5 0.02 0.96 0.7 2.65 1.52 3.75 0.82 1.1 1.47 4.02 1.45 6.5-0.03 3.87 0.47 4.99 3.55 8 1.97 1.93 4.56 5.08 5.77 7 1.89 3.04 2.26 5.47 2.8 18.5 0.34 8.25 0.54-17.17 0.45-56.5l-0.17-71.5c-4.5-7.75-7.28-11.57-9.07-13.5-2.52-2.71-3.26-4.4-3.29-7.5-0.02-2.2-0.68-6.92-1.48-10.5-0.79-3.57-2.38-11.45-3.52-17.5-1.72-9.03-2.78-12.07-5.94-17-2.12-3.3-5.37-8.92-7.23-12.5-1.85-3.57-5.39-8.62-7.87-11.22-3.98-4.18-5-4.74-8.75-4.76-2.99-0.01-6.62 1.17-12.25 3.98-4.4 2.2-10.59 4.68-13.75 5.51-3.16 0.82-9.24 1.5-13.5 1.5-4.26-0.01-11.46-0.89-16-1.96-4.54-1.08-12.08-2.42-16.75-3-4.67-0.57-15.7-1.92-24.5-2.99-8.8-1.07-21.96-2.2-29.25-2.5-7.29-0.31-16.74-1.05-21-1.64-4.26-0.6-13.6-2.67-20.75-4.61-7.8-2.11-16-3.65-20.5-3.85-4.13-0.18-12.67 0.28-19 1.02z"/>
		<path id="Path 10" class="s10" d="m535.06-475.5c-0.05 0.55 1.18 3.02 2.72 5.5 1.55 2.48 4.14 5.46 5.77 6.63 1.62 1.16 4.3 2.43 5.95 2.81 1.65 0.38 5.03 0.13 7.5-0.56 4.42-1.23 4.45-1.27 1.5-1.82-1.65-0.31-5.38-2.36-8.3-4.56-2.91-2.2-5.62-4-6.02-4-0.4 0-1.81-1-3.13-2.23-1.7-1.58-2.79-1.95-3.73-1.25-0.9 0.67-1.45 0.59-1.74-0.27-0.23-0.69-0.46-0.8-0.52-0.25zm-542.46 9.5c-0.38 1.93-1.01 4.98-1.4 6.78-0.44 2.07-1.16 3.08-1.95 2.75-0.69-0.29-2.82-0.53-4.75-0.53-3.41 0-3.52-0.12-4.18-4.75l-0.69-4.75c-1.39 7.75-1.92 43.75-2.09 85-0.21 54.14-0.06 68.05 0.54 50 0.46-13.75 1.09-25.23 1.4-25.5 0.32-0.27 0.56 2.54 0.55 6.25-0.02 5.36 0.34 7.01 1.75 8 0.98 0.69 1.74 1.92 1.68 2.75-0.05 0.83 0.05 1.84 0.23 2.25 0.17 0.41 1.77 0.13 3.56-0.62 1.79-0.75 3.81-1.2 4.5-1 0.82 0.24 1.24-0.74 1.22-2.88-0.01-1.79 0.2-3.02 0.47-2.75 0.27 0.27 0.98 3.2 1.59 6.5 0.62 3.38 1.84 6.55 2.79 7.27 0.99 0.74 4.56 1.26 8.68 1.25 3.85-0.01 11.73 0.91 17.5 2.04 5.78 1.12 17.93 2.49 27 3.03 9.08 0.54 22.13 1.35 29 1.8 7 0.45 18.88 0.41 27-0.11 7.98-0.5 18.1-0.66 22.5-0.34 4.4 0.32 10.48 1.22 13.5 2 3.03 0.77 7.75 2.41 10.5 3.64 2.75 1.23 5.45 2.34 6 2.46 0.55 0.13 3.7 0.96 7 1.85 3.3 0.88 6.29 2.17 6.65 2.86 0.42 0.81 0.93 0.37 1.44-1.25 0.43-1.38 0.93-3.17 1.09-4 0.17-0.83 0.6-1.66 0.96-1.86 0.36-0.2 33.19-0.43 72.96-0.5 46.67-0.09 72.66-0.49 73.31-1.14 0.56-0.55 1.19-2.13 1.4-3.5l0.39-2.5c433.1-0.43 517.61-0.19 519.3 0.51 2.43 0.99 2.51 1.34 2.81 12.26 0.17 6.17 0.4 11.33 0.5 11.45 0.11 0.12 3.68 0.57 7.95 1 5.13 0.51 7.75 1.2 7.75 2.03-0.01 0.85 0.54 0.98 1.74 0.39 0.96-0.48 4.9-0.52 8.75-0.08 3.85 0.43 8.13 1.21 9.5 1.73 1.38 0.52 8.58 3.87 16 7.45 7.43 3.58 18.23 7.9 24 9.6 5.78 1.71 15.23 4.24 21 5.63 5.78 1.39 12.75 3.62 15.5 4.94 2.75 1.32 6.25 3.91 7.78 5.75 1.53 1.84 4.79 5.93 7.25 9.09 3.02 3.89 4.47 6.72 4.47 8.75 0 2.07 1.27 4.48 4.08 7.75 2.25 2.61 5.51 7.23 7.25 10.25 2.83 4.92 3.23 6.61 3.77 16 0.33 5.77 0.51-26.63 0.41-72l-0.19-82.5c-5.26-13.13-7.8-17.43-10.31-20-3.48-3.57-3.97-4.71-4.56-10.5-0.36-3.57-0.98-6.73-1.36-7-0.39-0.27-3.18-4.32-6.19-9-3.8-5.89-6.55-9.03-8.94-10.22-1.9-0.95-8.63-2.44-14.96-3.32-6.32-0.88-17.12-2.45-24-3.5-7.13-1.08-18.51-3.8-26.5-6.32-7.7-2.43-17.6-5.14-22-6.01-4.4-0.88-14.52-2.06-22.5-2.62-7.97-0.57-19-1.7-24.5-2.52-5.5-0.81-13.37-1.93-17.5-2.48-4.12-0.55-14.7-2.32-23.5-3.93-8.8-1.62-20.05-3.44-25-4.06-4.95-0.61-15.75-2.23-24-3.59-8.25-1.36-19.72-3.44-25.5-4.6-5.77-1.17-13.87-2.13-18-2.13-4.12 0.01-9.41 0.52-11.75 1.15-2.34 0.63-5.68 2.39-7.42 3.9-1.75 1.51-4.44 5.45-6 8.75-1.56 3.3-2.82 6.68-2.81 7.5 0.01 0.82-3.56 4.65-7.93 8.5l-7.95 7c-0.11 22.09-0.64 31.76-1.26 35.75-0.61 3.99-2.6 11.52-4.42 16.75-1.82 5.23-5.38 14-7.92 19.5-2.53 5.5-5.38 10.57-6.33 11.27-1.36 1.01-30.72 1.26-144.21 1.23-78.37-0.02-143.01-0.36-143.62-0.77-0.62-0.4-3.14-4.78-5.59-9.73-2.45-4.95-5.88-12.6-7.63-17-1.74-4.4-4.3-12.5-5.68-18-1.38-5.5-2.5-11.24-2.49-12.75 0-1.51-0.42-3.31-0.96-4-0.53-0.69-2.27-2.82-3.86-4.75-1.6-1.93-3.26-4.62-3.7-6-0.45-1.37-2.19-4.65-3.89-7.28-2.1-3.26-3.31-4.38-3.81-3.5-0.47 0.8-0.75 0.35-0.77-1.22-0.02-1.37-1.44-4.98-3.15-8-1.7-3.02-4.56-7.52-6.34-10-1.77-2.48-4.76-5.26-6.62-6.19-1.86-0.92-5.41-1.69-7.89-1.69-2.47-0.01-20.02 0.13-39 0.3-18.97 0.18-40.57 0.83-48 1.44-7.42 0.62-22.5 1.69-33.5 2.38-11 0.69-23.37 1.14-27.5 1-4.12-0.15-13.12-1.14-20-2.22-6.87-1.07-17-2.46-22.5-3.09-7.72-0.88-14.45-0.84-29.5 0.16-18.62 1.24-20.2 1.2-35-0.91-8.52-1.22-18.54-2.21-22.25-2.2-6.08 0.02-6.84-0.2-7.64-2.23-0.49-1.24-1.32-3.37-1.85-4.75-0.95-2.47-0.97-2.45-1.66 1z"/>
		<path id="Path 11" class="s11" d="m-162.25 1158.5c-0.41 4.4-0.9 43.1-1.09 86-0.19 42.9-0.18 68.1 0.01 56 0.34-20.43 0.47-21.79 1.88-19 0.83 1.65 1.5 4.01 1.48 5.25-0.02 1.56 1.58 3.46 5.22 6.22 2.89 2.19 5.59 3.99 6 4 0.41 0.02 0.79-1.66 0.84-3.72l0.09-3.75c1.27 4.65 1.97 9.15 2.37 13 0.53 5.12 1.29 7.56 2.84 9.1 1.16 1.16 6.83 3.57 12.61 5.36 5.78 1.8 16.13 4.36 23 5.7 6.88 1.33 17 2.89 22.5 3.46 5.5 0.56 26.43 1.11 46.5 1.2 31.28 0.15 38.15-0.08 48-1.67 6.32-1.01 15.1-3.03 19.5-4.47 4.4-1.44 9.24-3.64 10.75-4.9 2.41-2 2.73-2.93 2.61-7.53-0.08-2.89 0.4-7.28 1.06-9.75 0.66-2.47 1.46-5.85 1.77-7.5 0.31-1.65 0.91-3.45 1.34-4 0.42-0.55 0.25-1.45-0.38-2-0.63-0.55-2.05-1.14-3.15-1.3-1.1-0.17-2.58-0.39-3.3-0.5-0.71-0.11-2.46-1.1-3.88-2.2l-2.59-2c0.34-62.78 0.63-81.56 0.86-82.25 0.22-0.69-0.04-1.25-0.59-1.25-0.55 0-1.01 0.56-1.02 1.25-0.01 1-0.16 1-0.75 0-0.4-0.69-3.43-1.98-6.73-2.86-3.3-0.89-6.45-1.72-7-1.85-0.55-0.12-3.25-1.23-6-2.46-2.75-1.23-7.47-2.87-10.5-3.64-3.03-0.78-9.1-1.68-13.5-2-4.4-0.32-14.53-0.16-22.5 0.34-8.12 0.52-20 0.56-27 0.11-6.87-0.45-19.93-1.26-29-1.8-9.08-0.54-21.22-1.91-27-3.03-5.78-1.13-13.65-2.05-17.5-2.04-4.12 0.01-7.69-0.51-8.68-1.25-0.95-0.72-2.17-3.89-2.79-7.27-0.61-3.3-1.32-6.22-1.59-6.5-0.27-0.28-0.48 0.96-0.47 2.75 0.02 2.14-0.4 3.12-1.22 2.88-0.69-0.2-2.71 0.25-4.5 1-1.79 0.75-3.39 1.03-3.56 0.62-0.18-0.41-0.28-1.42-0.24-2.25 0.04-0.83-0.7-2.17-1.66-3-1.26-1.08-1.82-3.31-2.02-8l-0.27-6.5zm868.02 63.95c0.35 14.54 0.21 16.21-1.45 17.79-1 0.95-6.88 3.54-13.07 5.75-6.19 2.2-11.23 3.67-11.21 3.26 0.03-0.41-0.67-0.08-1.54 0.75-0.88 0.83-1.55 1.05-1.5 0.5 0.05-0.55-0.63-0.33-1.5 0.5-0.88 0.83-1.55 1.05-1.5 0.5 0.05-0.55-0.68-0.33-1.61 0.5-0.94 0.83-1.86 1.39-2.05 1.25-0.19-0.14-0.45-0.22-0.59-0.17-0.14 0.04-1.15 0.25-2.25 0.46-1.1 0.22-2.68 0.7-3.5 1.08-0.83 0.37-1.95 0.81-2.5 0.96-0.55 0.15-6.96 2.33-14.25 4.85-7.29 2.51-13.25 4.35-13.25 4.07 0-0.28-1.13 0.17-2.5 1-1.38 0.83-2.95 1.28-3.5 1-0.55-0.28-1-0.05-1 0.5 0 0.55-1.13 1.22-2.5 1.5-1.94 0.39-2.51 1.12-2.52 3.25-0.01 1.51-0.71 5.45-1.56 8.75-0.84 3.3-1.79 7.12-2.1 8.5-0.32 1.37-1.68 3.62-3.04 5-1.77 1.79-2.31 3.21-1.93 5 0.3 1.37 1.91 4.41 3.59 6.75 1.72 2.39 8.86 8.55 16.31 14.08 7.29 5.41 19.1 13.67 26.25 18.37 7.15 4.7 15.7 9.89 19 11.53 3.3 1.64 16.35 6.4 29 10.58 12.65 4.17 32.9 10.37 45 13.76 12.1 3.39 26.95 7.21 33 8.47 6.05 1.27 15.5 2.84 21 3.48 5.5 0.64 11.35 1.72 13 2.39 1.65 0.68 4.06 2.32 5.37 3.66 1.3 1.34 3.63 4.46 5.17 6.93 1.55 2.47 3.97 5.51 5.39 6.75 1.41 1.24 2.56 2.81 2.55 3.5-0.01 0.69 1.9 2.25 4.25 3.48 2.35 1.22 5.62 3.33 7.27 4.69l3 2.47c1.37-30.53 1.54-60.31 1.26-85.89l-0.51-46.5c-6.01-9.96-9.44-14.79-11.5-17.17-2.54-2.93-3.75-5.3-3.75-7.33 0-2.03-1.45-4.86-4.47-8.75-2.46-3.16-5.73-7.25-7.25-9.09-1.53-1.84-5.03-4.43-7.78-5.75-2.75-1.32-9.73-3.55-15.5-4.94-5.78-1.39-15.23-3.92-21-5.63-5.78-1.7-16.58-6.02-24-9.6-7.43-3.58-14.63-6.93-16-7.45-1.38-0.52-5.65-1.3-9.5-1.73-3.85-0.44-7.79-0.4-8.75 0.08-1.28 0.62-1.75 0.45-1.75-0.64 0-1.09-1.16-1.51-4.25-1.54-2.34-0.03-6.08-0.39-8.31-0.8l-4.05-0.76z"/>
		<path id="Path 12" class="s12" d="m350.94 532.93c-0.62 1.07-1.08 2.64-1.03 3.5 0.05 0.87-0.59 1.8-1.41 2.07-0.82 0.28-33.9 0.5-73.5 0.5-56.59 0-72.14 0.27-72.64 1.25-0.36 0.69-0.82 3.5-1.02 6.25-0.35 4.63-0.14 5.2 2.89 7.75 1.8 1.51 5.52 3.49 8.27 4.4 2.75 0.9 6.24 2.7 7.75 4 1.51 1.29 5.34 2.91 8.5 3.6 4.13 0.9 17.03 1.21 45.75 1.12 22-0.08 45.85-0.67 53-1.32 7.15-0.65 18.18-2.16 24.5-3.35 11.47-2.16 11.91-2.16 163.5-2.18 83.6-0.01 175.17 0.33 203.5 0.77 28.33 0.43 55.77 1.22 61 1.74 5.23 0.53 10.63 1.19 12 1.47 1.38 0.28 15.1 0.68 30.5 0.91 27.69 0.4 28.03 0.38 30.5-1.8 1.38-1.21 4.3-2.52 6.5-2.92 2.2-0.4 4.93-1.5 6.06-2.46 1.13-0.95 2.6-3.3 3.27-5.23 0.66-1.92 1.2-6.42 1.19-10 0-4.12-0.56-7.32-1.51-8.75-1.16-1.73-1.22-2.35-0.26-2.67 0.69-0.23-115.17-0.46-257.47-0.5-254.78-0.08-258.74-0.05-259.84 1.85zm-149.5 64.07c0 16.78 0.14 23.53 0.31 15 0.17-8.52 0.17-22.25 0-30.5-0.17-8.25-0.31-1.27-0.31 15.5z"/>
		<path id="Path 13" class="s13" d="m760.64-497.41c-0.45 0.5-1.22 1.02-1.72 1.16-0.51 0.14-1.15 0.25-1.42 0.25-0.27 0-0.95 0.22-1.5 0.5-0.55 0.28-1.23 0.5-1.5 0.5-0.27 0-0.95 0.22-1.5 0.5-0.55 0.28-1.11 0.53-1.25 0.57-0.14 0.05-1.15 0.24-2.25 0.45-1.1 0.2-3.35 0.91-5 1.58-1.65 0.66-3.67 1.35-4.5 1.52-0.83 0.17-2.17 0.62-3 1-0.83 0.37-2.17 0.82-3 1-0.83 0.17-2.17 0.62-3 1-0.83 0.37-1.95 0.78-2.5 0.89-0.55 0.11-2.8 0.78-5 1.48-2.2 0.7-4.58 1.77-5.29 2.39-0.72 0.62-1.28 0.78-1.25 0.37 0.02-0.41-3.56 0.6-7.96 2.25-4.4 1.65-7.98 2.66-7.96 2.25 0.03-0.41-0.67-0.08-1.54 0.75-0.87 0.83-1.55 1.05-1.5 0.5 0.05-0.55-0.63-0.33-1.5 0.5-0.87 0.83-1.55 1.05-1.5 0.5 0.05-0.55-0.63-0.33-1.5 0.5-0.87 0.83-1.55 1.05-1.5 0.5 0.05-0.55-0.63-0.33-1.5 0.5-0.87 0.83-1.55 1.05-1.5 0.5 0.05-0.55-0.63-0.33-1.5 0.5-0.87 0.83-1.55 1.05-1.5 0.5 0.05-0.55-0.68-0.33-1.61 0.5-0.93 0.83-1.85 1.39-2.04 1.25-0.19-0.14-0.58-0.25-0.85-0.25-0.27 0-0.95 0.22-1.5 0.5-0.55 0.28-1.23 0.5-1.5 0.5-0.27 0-0.95 0.22-1.5 0.5-0.55 0.28-1.23 0.5-1.5 0.5-0.27 0-0.95 0.22-1.5 0.5-0.55 0.28-1.23 0.5-1.5 0.5-0.27 0-0.95 0.22-1.5 0.5-0.55 0.28-1.11 0.53-1.25 0.58-0.14 0.04-1.15 0.25-2.25 0.46-1.1 0.22-2.67 0.71-3.5 1.09-0.83 0.38-1.84 0.85-2.25 1.03-0.41 0.19-0.98 0.34-1.25 0.34-0.27 0-0.95 0.22-1.5 0.5-0.55 0.28-1.23 0.5-1.5 0.5-0.27 0-0.95 0.22-1.5 0.5-0.55 0.28-1.23 0.5-1.5 0.5-0.27 0-0.84 0.15-1.25 0.34-0.41 0.18-1.65 0.67-2.75 1.07-1.1 0.41-3.24 1.39-4.75 2.17-1.51 0.78-2.75 1.2-2.75 0.92 0-0.28-2.25 0.74-5 2.25-2.75 1.51-5 3.09-5 3.5 0 0.41-0.56 0.76-1.25 0.78-0.69 0.01-1.92 0.64-2.75 1.39-0.83 0.75-3.3 3.12-5.5 5.26-2.2 2.14-4.79 4.89-5.75 6.11-0.96 1.21-3.79 5.92-6.28 10.46-2.49 4.54-4.51 8.7-4.47 9.25 0.03 0.55-0.29 1.37-0.72 1.83-0.43 0.46-0.89 1.25-1.03 1.75-0.14 0.51-0.28 1.03-0.33 1.17-0.04 0.14-0.24 0.92-0.44 1.75-0.2 0.83-0.61 2.51-0.92 3.75-0.31 1.24-0.82 3.26-1.13 4.5-0.31 1.24-0.67 6.75-0.81 12.25-0.14 6.08 0.28 11.66 1.07 14.25 0.72 2.34 1.26 4.59 1.19 5-0.06 0.41-0.03 0.97 0.08 1.25 0.11 0.28 0.32 1.17 0.47 2 0.16 0.83 1.47 3.41 2.93 5.75 1.45 2.34 2.3 4.26 1.89 4.28-0.41 0.02 0.04 0.47 1 1 0.96 0.53 1.75 1.42 1.75 1.97 0 0.55 2.81 3.72 6.25 7.04 3.44 3.33 6.48 6.02 6.75 5.98 0.27-0.03 1.4 0.74 2.5 1.71 1.1 0.97 4.25 2.86 7 4.2 2.75 1.34 5.34 2.35 5.75 2.25 0.41-0.1 0.74 0.38 0.72 1.07-0.01 0.69 0.32 0.92 0.75 0.53 0.43-0.4 2.24-0.06 4.03 0.75 1.79 0.81 3.23 1.13 3.21 0.72-0.03-0.41 0.72-0.08 1.65 0.75 0.93 0.83 1.85 1.39 2.04 1.25 0.19-0.14 0.46-0.22 0.6-0.17 0.14 0.04 1.04 0.26 2 0.5 0.96 0.23 2.54 0.61 3.5 0.84 0.96 0.24 1.75 0.5 1.75 0.58 0 0.08 0.79 0.34 1.75 0.58 0.96 0.23 2.54 0.61 3.5 0.84 0.96 0.24 1.75 0.5 1.75 0.58 0 0.08 0.79 0.34 1.75 0.58 0.96 0.23 2.54 0.61 3.5 0.84 0.96 0.24 1.75 0.5 1.75 0.58 0 0.08 0.79 0.34 1.75 0.58 0.96 0.23 2.54 0.61 3.5 0.84 0.96 0.24 1.98 0.53 2.25 0.66 0.27 0.12 0.95 0.33 1.5 0.46 0.55 0.12 1.23 0.32 1.5 0.42 0.27 0.11 1.17 0.36 2 0.56 0.83 0.2 2.63 0.64 4 0.98 1.38 0.34 3.17 0.78 4 0.98 0.83 0.2 1.5 0.44 1.5 0.52 0 0.08 0.79 0.34 1.75 0.58 0.96 0.23 2.54 0.61 3.5 0.84 0.96 0.24 1.98 0.53 2.25 0.66 0.27 0.12 0.95 0.33 1.5 0.46 0.55 0.12 1.23 0.32 1.5 0.42 0.27 0.11 1.17 0.36 2 0.56 0.83 0.2 2.4 0.55 3.5 0.79 1.1 0.23 3.01 0.93 4.25 1.56 1.24 0.62 2.25 1.58 2.25 2.13 0 0.55 1.24 1 2.75 1 1.51 0.01 5.56-1.34 9-3 4.4-2.11 7.06-2.82 9-2.39 1.51 0.34 7.25 1.99 12.75 3.67 5.5 1.68 14.5 5.19 20 7.79 5.5 2.6 13.15 5.66 17 6.8 3.85 1.14 11.73 2.75 17.5 3.58 7.94 1.13 16.84 1.4 36.5 1.09 18.68-0.29 28.67-0.02 35.5 0.96 5.22 0.76 14.67 3.02 21 5.02 6.33 2.01 16 4.79 21.5 6.19 5.5 1.39 15.4 4.12 22 6.07 7.05 2.08 14.06 3.51 17 3.48 2.75-0.03 7.47-0.11 10.5-0.19 3.03-0.07 6.96-0.57 8.75-1.1 2.43-0.72 3.33-0.65 3.55 0.28 0.17 0.69 1.3-2.91 2.5-8 1.21-5.09 3.07-16.11 4.13-24.5 1.07-8.39 2.25-21.33 2.62-28.75l0.68-13.5c-5.99-4.84-9.43-7.09-11.5-8.13-2.08-1.03-3.76-2.43-3.75-3.12 0.01-0.69-1.14-2.26-2.55-3.5-1.42-1.24-3.84-4.28-5.38-6.75-1.55-2.47-3.88-5.59-5.18-6.93-1.3-1.34-3.72-2.98-5.37-3.66-1.65-0.67-7.5-1.75-13-2.39-5.5-0.64-14.95-2.21-21-3.48-6.05-1.26-20.9-5.08-33-8.47-12.1-3.39-32.35-9.59-45-13.76-12.65-4.18-25.7-8.94-29-10.58-3.3-1.64-11.85-6.83-19-11.53-7.15-4.7-18.96-12.96-26.25-18.37-7.45-5.53-14.59-11.69-16.31-14.08-1.68-2.34-3.29-5.37-3.59-6.75-0.38-1.79 0.16-3.21 1.93-5 1.36-1.37 2.73-3.62 3.04-5 0.31-1.37 1.3-5.42 2.18-9 0.89-3.58 1.47-7.81 1.28-9.41-0.19-1.6-0.7-2.5-1.14-2zm-784.14 49.91c-0.38 22-0.31 56.2 0.16 76 0.46 19.8 0.99 33.75 1.18 31l0.34-5c2.06 6.07 3.65 7.55 8.32 10.12 4.24 2.32 6.18 2.94 6.62 2.08 0.35-0.68 1.33 0.65 2.25 3.05 0.93 2.42 3.03 5.26 4.88 6.59 1.79 1.28 6.85 4.41 11.25 6.96 4.4 2.54 10.7 5.58 14 6.76 5.31 1.9 8.86 2.21 31 2.71 13.75 0.31 42.55 0.46 64 0.34 28.84-0.17 41.34-0.62 48-1.72 4.95-0.81 14.63-2.83 21.5-4.48 6.88-1.65 17.23-3.49 23-4.1 8.79-0.92 12.08-0.83 20.25 0.55 5.36 0.9 9.75 2.09 9.75 2.64 0 0.57 1.18 0.74 2.75 0.4 1.51-0.34 3.2-0.72 3.75-0.85 0.55-0.14 1.68-0.53 2.5-0.87 0.83-0.34 2.74-0.86 4.25-1.15 1.51-0.29 3.99-0.79 5.5-1.11 1.51-0.32 2.98-0.75 3.25-0.96 0.28-0.21 1.4-0.62 2.5-0.9 1.1-0.27 3.8-0.98 6-1.56 2.2-0.59 5.13-1.31 6.5-1.61 1.38-0.3 3.29-0.96 4.25-1.47 0.96-0.51 1.75-0.7 1.75-0.42 0 0.28 0.79 0.09 1.75-0.42 0.96-0.51 2.99-1.18 4.5-1.5 1.51-0.32 3.99-0.84 5.5-1.16 1.51-0.32 3.54-0.99 4.5-1.5 0.96-0.51 1.73-0.58 1.71-0.17-0.03 0.41 0.67 0.08 1.54-0.75 0.87-0.83 1.57-1.16 1.54-0.75-0.02 0.41 2.55-0.15 5.71-1.26 3.16-1.11 6.43-2.3 7.25-2.65 0.83-0.35 2.18-0.79 3-0.97 0.83-0.19 3.92-1.81 6.87-3.6 2.95-1.8 8.51-6.42 12.36-10.27 3.85-3.85 7.4-8.24 7.89-9.75 0.48-1.51 1.33-2.75 1.88-2.75 0.55 0 0.78-0.45 0.5-1-0.27-0.55 0.06-0.99 0.75-0.97 0.69 0.01 0.92-0.32 0.53-0.75-0.4-0.43-0.19-1.68 0.46-2.78 0.65-1.1 1.32-2.34 1.47-2.75 0.16-0.41 0.32-0.86 0.37-1 0.04-0.14 0.28-1.15 0.52-2.25 0.25-1.1 0.74-3.58 1.09-5.5 0.36-1.92 0.64-6.65 0.63-10.5 0-3.85-0.27-8.58-0.59-10.5-0.31-1.92-0.86-4.62-1.21-6-0.35-1.37-0.8-3.17-1-4-0.2-0.83-0.4-1.61-0.44-1.75-0.05-0.14-0.21-0.59-0.37-1-0.15-0.41-0.78-1.65-1.4-2.75-0.61-1.1-1.23-2.45-1.38-3-0.14-0.55-1.1-2.8-2.13-5-1.02-2.2-2.41-4.88-3.08-5.95-0.67-1.07-1.67-2.54-2.22-3.28-0.55-0.73-3.75-4.13-7.12-7.55-3.37-3.42-6.85-6.78-7.75-7.47-0.9-0.69-2.08-1.25-2.63-1.25-0.55 0-0.99-0.34-0.98-0.75 0.01-0.41-2.57-1.95-5.75-3.43-3.17-1.47-6.67-3-7.77-3.41-1.1-0.41-2.34-0.89-2.75-1.07-0.41-0.19-0.97-0.34-1.25-0.34-0.27 0-0.84-0.15-1.25-0.34-0.41-0.18-1.42-0.62-2.25-0.97-0.82-0.35-2.85-0.9-4.5-1.23-1.65-0.34-3.9-0.78-5-1-1.1-0.21-3.57-0.65-5.5-0.97-1.92-0.33-4.4-0.77-5.5-0.99-1.1-0.22-3.12-0.61-4.5-0.87-1.37-0.26-4.3-0.77-6.5-1.12-2.2-0.36-5.01-0.84-6.25-1.08-1.24-0.24-3.26-0.62-4.5-0.86-1.24-0.24-4.05-0.71-6.25-1.05-2.2-0.34-4.9-0.81-6-1.04-1.1-0.23-3.57-0.68-5.5-1.01-1.92-0.33-4.51-0.79-5.75-1.03-1.24-0.24-3.26-0.61-4.5-0.83-1.24-0.21-3.82-0.7-5.75-1.09-1.92-0.38-4.51-0.88-5.75-1.11-1.24-0.22-3.26-0.6-4.5-0.82-1.24-0.23-3.82-0.73-5.75-1.11-1.92-0.39-4.4-0.85-5.5-1.02-1.1-0.18-3.8-0.6-6-0.94-2.2-0.34-4.9-0.81-6-1.04-1.1-0.24-3.8-0.64-6-0.9-2.2-0.26-3.44-0.27-2.75-0.03 0.78 0.28 0.92 0.92 0.38 1.7-0.49 0.69-1.13 2.6-1.44 4.25-0.31 1.65-1.11 5.03-1.77 7.5-0.66 2.47-1.14 6.86-1.06 9.75 0.12 4.6-0.2 5.53-2.61 7.53-1.51 1.26-6.35 3.46-10.75 4.9-4.4 1.44-13.17 3.46-19.5 4.47-9.85 1.59-16.72 1.82-48 1.67-20.07-0.09-41-0.64-46.5-1.2-5.5-0.57-15.62-2.13-22.5-3.46-6.87-1.34-17.22-3.9-23-5.7-5.77-1.79-11.45-4.2-12.61-5.36-1.55-1.54-2.31-3.98-2.84-9.1-0.4-3.85-1.1-8.35-1.55-10l-0.82-3c-0.14 5.81-0.52 7.49-0.93 7.47-0.41-0.01-3.11-1.81-6-4-3.64-2.76-5.24-4.66-5.22-6.22 0.02-1.24-0.62-3.6-1.41-5.25-1.3-2.69-1.51 1.12-2.12 37z"/>
		<path id="Path 14" class="s14" d="m-36.93-420.5c-0.03 3.85 0.41 12.4 0.98 19 0.57 6.6 1.93 17.4 3.03 24 1.09 6.6 3.06 16.05 4.36 21 1.31 4.95 2.41 8.33 2.45 7.5 0.05-1.04 1.09-0.54 3.34 1.61 1.8 1.7 5.3 4.46 7.77 6.12 2.47 1.67 6.07 3.68 8 4.47 1.93 0.79 5.75 4.02 8.5 7.17 2.75 3.15 8.82 8.46 13.5 11.78 4.68 3.33 13.22 8.33 19 11.12 5.78 2.79 13.2 5.91 16.5 6.92 3.56 1.1 11.91 2.25 20.5 2.83 7.97 0.53 21.25 1.46 29.5 2.07 8.25 0.6 23.32 1.03 33.5 0.95 10.18-0.07 23.68-0.77 30-1.55 6.32-0.78 20.05-2.55 30.5-3.95 14.38-1.92 20.34-3.16 24.5-5.08 4.52-2.08 7.99-2.71 19.5-3.52 7.7-0.55 22.32-1.38 32.5-1.85 15.34-0.7 19.35-1.21 23.5-2.97 2.75-1.17 4.77-2.33 4.5-2.59-0.27-0.25-2.98-0.89-6-1.42-3.02-0.53-7.64-1.22-10.25-1.54-2.67-0.32-4.53-1.01-4.25-1.57 0.32-0.63-3.33-1-10-1h-10.5c0-6.26-0.79-7.73-3.75-10.45-3.35-3.09-3.54-3.5-1.75-3.89 1.1-0.23-2.5-0.49-8-0.56-5.5-0.07-11.35-0.61-13-1.2-1.65-0.59-3.99-2.5-5.21-4.24-2.08-2.99-2.21-4.28-2.36-23.66-0.11-13.18 0.23-21.48 0.95-23.25 0.62-1.51 2.13-3.4 3.37-4.18 2.13-1.36 2.16-1.52 0.5-3-0.96-0.87-5.91-2.31-11-3.22-7.78-1.38-10.91-1.47-19.75-0.54-5.77 0.61-16.13 2.45-23 4.1-6.88 1.65-16.55 3.67-21.5 4.48-6.66 1.1-19.16 1.55-48 1.72-21.45 0.12-50.25-0.03-64-0.34-22.14-0.5-25.69-0.81-31-2.71-3.3-1.18-9.6-4.22-14-6.76-4.4-2.55-9.46-5.68-11.25-6.96-1.85-1.33-3.95-4.17-4.88-6.59-0.92-2.4-1.9-3.73-2.25-3.05-0.44 0.86-2.38 0.24-6.62-2.08-4.64-2.55-6.27-4.07-7.19-6.71-1.14-3.26-1.2-3.1-1.24 3.59zm752.43 26.52c-3.3 1.65-6.79 2.99-7.75 2.99-0.96-0.01-1.75 0.44-1.75 0.99 0 0.55 0.45 1.22 1 1.5 0.55 0.28 0.77 0.95 0.5 1.5-0.27 0.55-0.16 1.18 0.25 1.41 0.41 0.22 0.64 9.22 0.5 20-0.14 10.77-0.48 20.04-0.75 20.59-0.27 0.55-0.27 1 0 1 0.27 0-0.96 1.51-2.75 3.35-1.79 1.84-3.7 3.45-4.25 3.59-0.55 0.13-9.33 0.56-19.5 0.95-10.24 0.4-14.82 0.8-10.25 0.91 4.54 0.11 8.48 0.65 8.75 1.2 0.27 0.55 0.05 1-0.5 1-0.55 0-4.26 2.39-8.25 5.32-3.99 2.93-8.13 6.19-9.2 7.25-1.49 1.48-4.54 2.22-13 3.15-6.08 0.66-14.43 1.26-18.55 1.32-4.13 0.05-8.4 0.47-9.5 0.92-1.59 0.66-1.69 0.93-0.5 1.36 0.83 0.29 6 1.74 11.5 3.23 5.5 1.48 15.4 4.21 22 6.08 6.6 1.86 13.58 4.24 15.5 5.28 2.05 1.12 7.44 2.36 13 3 5.23 0.59 17.83 1.55 28 2.11 10.17 0.56 22.33 1.49 27 2.06 4.67 0.57 14.8 1.91 22.5 2.98 7.7 1.06 24.8 2.36 38 2.89 22.09 0.88 25.59 1.28 44 5.06 15.73 3.22 23.1 4.22 34.5 4.68 9.09 0.36 17.11 0.15 21.5-0.58 4.93-0.81 10.11-2.74 17.5-6.52 5.78-2.95 12.38-6.43 14.67-7.73 2.29-1.3 8.01-5.28 12.71-8.86 8.21-6.25 8.72-6.87 13.03-16 2.47-5.22 6.04-14.22 7.94-20 1.9-5.78 3.73-12.19 4.05-14.25l0.6-3.75c-5.04 1.5-8.97 2-12 2.07-3.03 0.08-7.75 0.16-10.5 0.19-2.94 0.03-9.95-1.4-17-3.48-6.6-1.95-16.5-4.68-22-6.07-5.5-1.4-15.17-4.18-21.5-6.19-6.33-2-15.78-4.26-21-5.02-6.83-0.98-16.82-1.25-35.5-0.96-19.66 0.31-28.56 0.04-36.5-1.09-5.77-0.83-13.65-2.44-17.5-3.58-3.85-1.14-11.5-4.2-17-6.8-5.5-2.6-14.5-6.11-20-7.81-5.5-1.69-11.35-3.33-13-3.65-2.16-0.41-4.68 0.26-9 2.41z"/>
		<path id="Path 15" class="s15" d="m521.53 143.75c-4.28 5.36-12.99 17.63-19.35 27.25-6.37 9.63-14.38 22.9-17.81 29.5-3.43 6.6-7.99 17.18-10.15 23.5-2.16 6.32-4.21 12.74-4.57 14.25-0.59 2.5-0.4 2.75 2.1 2.71 1.51-0.03 4.55-0.72 6.75-1.55 2.2-0.83 6.03-2.07 8.5-2.77 2.48-0.7 8.1-3.76 12.5-6.79 6.09-4.21 9.67-5.91 15-7.13 6.07-1.4 7.53-2.19 11-6 2.2-2.42 5.24-5.14 6.75-6.06 1.56-0.94 3.14-3.06 3.64-4.91 0.67-2.41 0.37-5.05-1.14-10.25-1.75-6.05-2.09-10.69-2.48-34.25-0.34-21.03-0.73-27.25-1.71-27.25-0.69 0-4.76 4.39-9.03 9.75z"/>
		<path id="Path 16" class="s16" d="m554.92 327.53c-1.33 1.39-4.6 3.28-7.26 4.2-2.66 0.91-6.82 3.38-9.25 5.47-4.28 3.69-4.64 3.8-12.16 3.82-4.26 0.01-12.47 0.66-18.25 1.44-5.77 0.77-12.41 2.12-14.75 2.98-2.34 0.86-5.71 1.53-7.5 1.49-1.79-0.04-6.4 0.16-10.25 0.44l-7 0.52c-1.33 6.67-2.59 12.44-3.66 17.11-1.07 4.68-3.08 10.75-4.46 13.5-1.39 2.75-3.95 6.5-5.7 8.34-1.75 1.83-4.42 3.97-5.93 4.75-1.51 0.77-4.44 1.4-6.5 1.39-2.06-0.01-5.53-1.02-7.7-2.25-2.19-1.23-5.21-4.24-6.76-6.73-1.55-2.47-3.47-6.97-4.29-10-0.81-3.02-1.74-9.77-2.07-15-0.33-5.22-0.78-10.06-1.01-10.75-0.29-0.85-1.45-0.43-3.67 1.35-1.79 1.43-5.21 3.12-7.6 3.75-2.4 0.63-4.76 1.94-5.25 2.9-0.5 0.96-5.06 3.95-10.15 6.63-5.09 2.69-11.5 6.05-14.25 7.47-2.75 1.42-8.15 3.97-12 5.66-3.85 1.69-7.9 3.21-9 3.37-1.1 0.16-2.63 1.6-3.4 3.2-0.77 1.61-2.23 6.97-3.24 11.92-1.01 4.95-2.32 13.95-2.92 20-0.59 6.05-0.93 13.52-0.76 16.61l0.32 5.61c11.1-3.27 14.67-4.56 15.08-4.97 0.41-0.41 1.69-0.76 2.84-0.76 1.14-0.01 3.99-1.13 6.33-2.5 2.34-1.37 4.93-2.49 5.75-2.49 0.83 0 1.61 0.4 1.75 0.9 0.14 0.49 4.98 0.03 10.75-1.03 6.91-1.27 18.7-2.24 34.5-2.83 13.2-0.49 29.18-1.62 35.5-2.52 6.33-0.89 23.2-2.12 37.5-2.74 14.3-0.62 30.28-1.14 35.5-1.15 7.54-0.03 11.25 0.51 18 2.62 4.67 1.46 11.65 3.19 15.5 3.85 4.29 0.72 10.87 0.94 17 0.56 5.5-0.35 14.95-1.8 21-3.23 6.56-1.55 15.44-2.82 22-3.14 10.04-0.49 11.68-0.3 18.75 2.09 6.49 2.19 8.12 2.42 10 1.4 1.24-0.67 5.96-1.23 10.5-1.25 7.6-0.03 8.25 0.13 8.22 1.97-0.01 1.1 0.23 1.78 0.55 1.5 0.32-0.27-0.12-5.45-0.96-11.5-0.85-6.05-2.91-15.95-4.59-22-1.69-6.05-4.01-13.7-5.16-17-1.16-3.3-2.94-7.91-3.96-10.25-1.81-4.16-1.91-4.22-4.6-2.92-1.71 0.83-5.98 1.29-11.25 1.21-4.74-0.06-11.37-0.91-15-1.92-3.58-0.99-7.4-2.37-8.5-3.06-1.1-0.7-4.7-1.75-8-2.33-3.3-0.59-6.79-1.33-7.75-1.65-1.53-0.51-1.75 0.14-1.77 5.17-0.01 3.16-0.63 8.68-1.37 12.25-0.75 3.58-2.63 9.2-4.19 12.5-1.55 3.3-4.76 7.91-7.12 10.25-2.68 2.65-5.81 4.63-8.3 5.25-2.2 0.55-5.69 0.69-7.75 0.32-2.25-0.41-5.28-2.11-7.58-4.25-2.11-1.97-4.92-5.93-6.25-8.82-1.33-2.89-3.12-8.29-3.98-12-1.02-4.43-1.54-11.4-1.51-20.25 0.03-7.42 0.52-16.34 1.09-19.8 0.56-3.47 0.87-6.51 0.67-6.75-0.2-0.24-1.44 0.69-2.77 2.08z"/>
		<path id="Path 17" class="s17" d="m524.85 416.51c-0.36 0.4-12.29 1.1-26.5 1.56-14.22 0.46-31.03 1.56-37.35 2.45-6.33 0.9-22.3 2.03-35.5 2.52-15.8 0.59-27.59 1.56-34.5 2.83-5.77 1.06-10.61 1.52-10.75 1.03-0.14-0.5-0.93-0.9-1.75-0.9-0.83 0-3.41 1.12-5.75 2.49-2.34 1.37-5.19 2.49-6.33 2.5-1.15 0-2.43 0.35-2.84 0.76-0.41 0.41-3.98 1.71-7.92 2.87l-7.16 2.13c0.35 13.76 0.94 20.23 1.53 23.25 0.59 3.02 2.52 9.94 4.27 15.37 1.76 5.42 5.9 15.32 9.2 22l6 12.13 287.5 0.5c8.32-17.44 11.88-25.65 13.27-29.5 1.39-3.85 3.25-10.49 4.13-14.75 1.08-5.23 1.6-13.03 1.61-24 0.01-8.94-0.25-17.6-0.57-19.25l-0.59-3c-12.67 0.05-17.36 0.61-18.6 1.28-1.88 1.02-3.51 0.79-10-1.4-7.07-2.39-8.71-2.58-18.75-2.09-6.53 0.32-15.47 1.59-22 3.13-6.05 1.43-15.27 2.89-20.5 3.25-5.73 0.39-12.48 0.18-17-0.53-4.13-0.65-11.1-2.32-15.5-3.73-5.16-1.65-11.37-2.74-17.5-3.09-5.23-0.3-9.79-0.21-10.15 0.19z"/>
		<path id="Path 18" class="s18" d="m870.2 562l-0.11 8.5c-6.27 5.81-8.09 7.84-8.08 8.25 0 0.41-0.9 1.54-2 2.5-1.28 1.11-2.28 1.38-2.76 0.74-0.46-0.62-2.1 0.16-4.25 2.01-1.93 1.66-4.63 3.21-6 3.45-1.38 0.23-5.2 0.73-8.5 1.1-3.3 0.37-8.03 0.77-10.5 0.89-2.48 0.11-7.65 1.15-11.5 2.31-3.85 1.16-9.93 2.4-13.5 2.76-3.58 0.36-11.23 1.49-17 2.51-5.78 1.02-13.88 2.35-18 2.96-4.13 0.61-16.95 3.3-28.5 5.98-11.55 2.67-27.08 6.03-34.5 7.45-7.42 1.42-17.1 3.29-21.5 4.16-4.4 0.86-16.55 3.53-27 5.92-10.45 2.39-21.93 5.34-25.5 6.55-3.58 1.21-8.86 3.5-11.75 5.08-2.89 1.58-5.59 3.51-6 4.28-0.41 0.76-2.33 2.29-4.25 3.4-1.93 1.1-7.55 2.93-12.5 4.07-4.95 1.14-14.4 2.54-21 3.11-6.6 0.57-18.98 0.81-27.5 0.52-8.53-0.28-20-0.75-25.5-1.05-7.19-0.39-13.65 0-23 1.39-10.86 1.62-15.06 1.8-25.5 1.07-6.88-0.48-17.45-1.57-23.5-2.43-6.05-0.85-13.48-2.23-16.5-3.05-3.03-0.83-7.3-2.24-9.5-3.14-2.2-0.9-5.8-2.38-8-3.29-2.2-0.91-6.03-2.45-8.5-3.44-2.48-0.99-5.4-2.18-6.5-2.65-1.1-0.47-6.95-2.41-13-4.32-6.05-1.91-15.5-4.6-21-5.97-5.5-1.36-15.18-3.4-21.5-4.52-6.33-1.12-15.55-2.52-20.5-3.1-4.95-0.58-16.2-2.16-25-3.5-8.8-1.34-22.08-2.93-29.5-3.52-7.43-0.59-15.53-1.56-18-2.15-2.48-0.6-8.33-3.04-13-5.42-4.68-2.38-10.19-5.02-12.25-5.87-3.17-1.3-4.25-2.62-7-8.52-1.79-3.84-3.81-6.99-4.5-7-0.69-0.01-2.46-0.81-3.93-1.77-1.47-0.96-3.95-2.99-5.5-4.5-1.55-1.51-3.27-2.75-3.82-2.75-0.63 0-1.01 6.93-1.02 18.75l-0.02 18.75c5.07 4.87 8.34 7.22 10.54 8.36 2.2 1.14 4.3 1.75 4.68 1.36 0.37-0.4 1.14 0.86 1.71 2.78 0.57 1.92 2.02 4.4 3.22 5.5 1.36 1.25 6.53 3 13.78 4.68 6.39 1.47 15.66 3.36 20.61 4.2 4.95 0.84 11.02 1.78 13.5 2.09 2.47 0.31 6.3 0.82 8.5 1.13 2.2 0.31 12.55 2.72 23 5.35 10.45 2.64 23.05 5.72 28 6.86 4.95 1.14 11.7 2.59 15 3.22 3.3 0.63 8.47 2.52 11.5 4.2 3.02 1.68 7.88 4.91 10.79 7.16 2.9 2.26 9.89 8.84 15.52 14.61 7.56 7.75 11.05 12.2 13.34 17 1.71 3.58 3.84 8.64 4.73 11.25 0.89 2.61 1.62 7.45 1.62 10.75 0 4.43-0.33 5.85-1.25 5.44-0.69-0.3-1.92 0.17-2.75 1.05-0.83 0.88-1.95 1.56-2.5 1.52-0.55-0.05-3.14 2.18-5.75 4.95-2.61 2.77-4.78 5.38-4.83 5.79-0.04 0.41-0.26 1.54-0.5 2.5-0.23 0.96-0.55 2.31-0.72 3-0.16 0.69-0.91 2.37-1.67 3.75-0.75 1.37-1.23 2.5-1.05 2.5 0.17 0 0.02 1.01-0.33 2.25-0.36 1.24-1.1 2.25-1.65 2.25-0.55 0-0.99 0.56-0.98 1.25 0.01 0.69-1 2.36-2.25 3.72-1.25 1.36-2.83 3.5-3.52 4.75-1.17 2.14-1.11 2.22 1 1.34 1.54-0.65 2.65-0.57 3.52 0.25 0.69 0.65 1.26 2.31 1.25 3.69-0.01 1.37-1.59 4.86-3.52 7.75-1.92 2.89-6.99 8.02-11.25 11.41-4.26 3.38-11.35 7.87-15.75 9.96-4.4 2.1-12.73 5.16-18.5 6.8-5.78 1.64-15.11 3.9-20.75 5.03-5.64 1.13-12.39 2.03-15 2.01-2.61-0.03-6.33-0.64-8.25-1.36-2.46-0.93-4.09-1.02-5.5-0.31-1.1 0.55-1.67 0.6-1.26 0.11 0.4-0.5-0.61-2.14-2.25-3.65-1.65-1.51-2.43-2.74-1.74-2.72 0.69 0.01 1.02-0.19 0.75-0.45-0.28-0.27-1.53-0.17-2.8 0.22-1.31 0.4-2.06 1.23-1.75 1.95 0.3 0.69-0.01 1.59-0.69 2-0.91 0.55-0.98 0.35-0.26-0.75q0.97-1.48-0.01-0.83c-0.54 0.37-0.77 2.57-0.49 4.89 0.35 2.99 1.23 4.77 3 6.07 1.37 1.01 4.07 1.9 6 1.97 1.92 0.08 4.97 0.87 6.76 1.77 2.88 1.44 4.24 1.48 11.5 0.37 4.53-0.69 15.21-2.87 23.74-4.85 8.52-1.97 19.77-4.94 25-6.6 5.22-1.65 12.65-4.44 16.5-6.2 3.85-1.76 10.26-5.31 14.25-7.9 3.99-2.58 9.34-6.6 11.91-8.94 2.56-2.34 6.04-6.33 7.75-8.86 1.7-2.54 5.07-7.49 7.5-11 2.42-3.52 6.76-9.54 9.63-13.39 2.88-3.85 6.3-7.97 7.6-9.16 1.3-1.19 4.16-2.64 6.36-3.23 3.19-0.86 6.03-0.68 14 0.87 5.5 1.07 15.17 3.1 21.5 4.51 6.33 1.42 16.9 3.47 23.5 4.56 6.6 1.09 25.05 2.74 41 3.67 27.32 1.58 29.69 1.57 41-0.04 6.6-0.95 13.46-1.71 15.25-1.7 1.79 0.01 4.49 0.5 6 1.08 1.51 0.58 4.7 2.94 7.09 5.25 2.39 2.3 8.01 8.43 12.5 13.61 4.49 5.18 12.55 13.17 17.91 17.75 5.36 4.58 12.79 9.85 16.5 11.7 3.71 1.86 10.12 4.59 14.25 6.06 4.12 1.48 15.37 4.66 25 7.07 9.62 2.41 22.67 5.54 29 6.95 6.33 1.42 12.85 2.59 14.5 2.6 1.65 0.01 4.24-0.9 5.75-2.02 1.51-1.11 3.87-2.03 5.25-2.03 1.37 0 3.74-0.61 5.25-1.36 1.51-0.75 3.09-2.1 3.5-3 0.41-0.9 0.75-2.65 0.74-3.89 0-1.24-0.45-3.94-1-6-0.62-2.34-1.46-3.57-2.24-3.26-0.69 0.27-1.59 2.29-2 4.5-0.41 2.21-1.2 3.78-1.75 3.51-0.55-0.27-1-0.05-1 0.5 0 0.55-1.24 1-2.75 1.01-1.51 0-4.55 0.71-6.75 1.57-3.73 1.47-4.75 1.43-15-0.56-6.05-1.18-15.28-3.27-20.5-4.63-5.23-1.37-12.42-3.42-16-4.55-3.58-1.14-9.2-3.23-12.5-4.65-3.3-1.42-8.7-4.39-12-6.6-3.3-2.21-7.76-5.61-9.92-7.56-2.15-1.94-5.2-5.55-6.76-8.03q-2.85-4.5-2.85-8.5c0-2.2 0.54-4.56 1.21-5.25 0.67-0.69 2.25-1.25 3.52-1.25 1.8 0 2.14-0.38 1.58-1.75-0.4-0.96-1.52-2.54-2.5-3.5-0.98-0.96-1.78-2.42-1.78-3.25 0-0.83-0.53-1.5-1.17-1.5-0.64 0-0.86-0.34-0.49-0.75 0.37-0.41 0.07-1.65-0.68-2.75-0.74-1.1-1.62-3.13-1.97-4.5-0.34-1.38-3-5.06-5.9-8.18-2.91-3.12-6.01-7.17-6.9-9-0.89-1.83-2.04-4.67-2.55-6.32-0.67-2.11-0.44-5.8 0.76-12.5 1.07-5.97 2.74-11.36 4.49-14.5 1.53-2.75 3.38-5.34 4.1-5.75 0.72-0.41 1.31-1.65 1.31-2.75 0-1.1 0.34-2.11 0.75-2.25 0.41-0.14 2.77-2.9 5.25-6.14 2.47-3.24 7.2-8.37 10.5-11.41 3.3-3.03 9.15-7.63 13-10.21 3.85-2.59 8.8-5.62 11-6.73 2.2-1.12 10.52-4.37 18.5-7.23 7.97-2.86 16.97-6.06 20-7.12 3.02-1.05 12.92-3.9 22-6.33 9.08-2.44 23.02-6.27 31-8.51 7.97-2.25 19.11-4.98 24.75-6.08 5.64-1.09 14.19-3.31 19-4.92 4.81-1.61 13.92-4.34 20.25-6.07 6.33-1.73 13.75-3.85 16.5-4.7 2.75-0.86 5.79-1.28 6.75-0.93 1.21 0.44 1.52 0.26 1-0.57-0.56-0.89 0.03-1.01 2.25-0.47 1.65 0.4 2.46 0.38 1.8-0.05-0.75-0.49 1.11-1.68 5-3.21 3.41-1.33 7.49-3.58 9.07-5 1.58-1.41 3.5-4.03 4.25-5.82 0.76-1.79 1.39-4.94 1.4-7 0.01-2.59 0.28-3.29 0.87-2.25 0.73 1.29 0.94 1.25 1.48-0.25 0.35-0.96 0.56-5.01 0.48-9-0.09-4.25-0.38-6.01-0.7-4.25-0.5 2.78-0.59 2.67-1.2-1.5-0.52-3.63-0.67-2.86-0.75 4z"/>
		<path id="Path 19" class="s19" d="m747.74 821c-0.47 2.93-1.69 5.44-3.48 7.2-1.89 1.85-4.02 2.79-6.76 2.98-2.2 0.16-4.79 1.08-5.75 2.05-0.96 0.97-3.44 2.07-5.5 2.43-2.38 0.42-14.53-0.87-33.25-3.52-16.23-2.3-38.27-5.08-49-6.18-14.19-1.46-29.03-2.1-54.5-2.38-19.25-0.2-56.38-0.88-82.5-1.5-26.13-0.62-54.93-1.58-64-2.14-9.07-0.56-22.13-1.28-29-1.6-6.88-0.32-17.23-0.08-23 0.53-5.77 0.61-21.98 2.66-36 4.57-14.02 1.9-32.02 4.21-40 5.12-7.98 0.92-17.88 1.68-22 1.69-4.13 0.02-10.43-0.35-14-0.81-5.15-0.67-7.07-1.42-9.25-3.64-1.51-1.54-2.76-2.24-2.77-1.55q0 1.28-1.09-0.25c-0.91-1.26-0.98-1.22-0.48 0.25 0.32 0.96 0.59 7.83 0.59 15.25v13.5l6.5 6.91c441.05 0.11 468.37-0.05 471.25-1.39 1.91-0.89 3.83-2.86 4.66-4.77 0.96-2.22 1.53-8.48 1.78-19.75 0.21-9.08 0.16-14.48-0.1-12l-0.47 4.5-1.15-10z"/>
	</g>
</svg>